<svg
	version="1.1"
	id="Layer_1"
	xmlns="http://www.w3.org/2000/svg"
	xmlns:xlink="http://www.w3.org/1999/xlink"
	x="0px"
	y="0px"
	viewBox="0 0 180 180"
	style="enable-background: new 0 0 180 180"
	xml:space="preserve"
>
	<defs>
		<style>
			
			.cls-1 {
				opacity: 0.2;
			}
			.cls-2 {
				opacity: 0.15;
			}
			.cls-3 {
				letter-spacing: -0.02em;
			}
			.cls-4 {
				fill: #4e4c4b;
			}
			.cls-5 {
				font-family: Montserrat-Medium, Montserrat;
				font-size: 12px;
			}
			.cls-6 {
				fill: #1a1a1a;
			}

			.cls-7 {
				fill: #ff9999;
			}
		</style>
	</defs>

	<g>
		<path class="cls-6" d="M69.59,52.38c-5.17,2.12-6.57,10.98-6.57,10.98,5.03-4.38,7.45,.64,12.47-3.33,4.19-3.31-.82-9.73-5.9-7.65Z" />
		<path
			class="cls-4"
			d="M109.47,29.75s-1.59,8.11,11.45,9.44l2.94,3.25s-.71,6.28,10.97,10.68l1.92,3.61s.11,9.99,7.42,14.67v3.68s-2.53,6.97,2.39,16.79l-.74,3.57s-4.78,8.27-1.88,19.8l-1.08,2.37s-6.93,5.15-11.87,17.38S96.86,44.39,96.86,44.39l4.98-11.26,7.62-3.38Z"
		/>
		<g class="cls-2">
			<path
				d="M109.47,29.75s-1.59,8.11,11.45,9.44l2.94,3.25s-.71,6.28,10.97,10.68l1.92,3.61s.11,9.99,7.42,14.67v3.68s-2.53,6.97,2.39,16.79l-.74,3.57s-4.78,8.27-1.88,19.8l-1.08,2.37s-6.93,5.15-11.87,17.38S96.86,44.39,96.86,44.39l4.98-11.26,7.62-3.38Z"
			/>
		</g>
		<path
			class="cls-6"
			d="M129.95,137.98c-.05,0-.1,0-.14,0-2.18-.12-5.84-.31-21-47.32-7.3-22.62-13.8-45.49-13.87-45.72-.13-.45-.09-.93,.09-1.36l4.98-11.26c.2-.45,.56-.82,1.02-1.02l7.62-3.38c.68-.3,1.48-.2,2.06,.27,.58,.46,.85,1.2,.72,1.92-.02,.11-.26,1.82,1.02,3.5,1.47,1.92,4.47,3.16,8.67,3.59,.49,.05,.95,.28,1.28,.65l2.94,3.25c.39,.43,.57,1,.5,1.57h0s-.15,4.88,9.69,8.59c.45,.17,.83,.5,1.06,.93l1.92,3.6c.15,.28,.23,.6,.24,.92,0,.08,.21,8.98,6.5,13.01,.57,.37,.92,1,.92,1.68v3.68c0,.23-.04,.46-.12,.68-.08,.24-2.13,6.38,2.3,15.21,.2,.4,.26,.86,.17,1.3l-.74,3.57c-.04,.21-.12,.41-.23,.6-.04,.07-4.32,7.78-1.67,18.31,.11,.44,.07,.9-.12,1.32l-1.08,2.37c-.14,.31-.36,.57-.63,.78-.06,.04-6.57,5.04-11.21,16.52-.81,1.99-2.22,2.26-2.92,2.26Zm-30.96-93.45c11.32,39.78,25.31,82.02,30.56,88.73,4.4-10.36,10.1-15.6,11.71-16.94l.59-1.3c-2.46-10.71,1.22-18.63,2.08-20.29l.54-2.62c-4.28-8.97-2.77-15.71-2.29-17.36v-2.33c-6.38-4.76-7.28-13.02-7.4-15.18l-1.36-2.55c-9.69-3.87-11.29-9.24-11.52-11.48l-1.94-2.15c-5.07-.64-8.69-2.38-10.76-5.16-.82-1.1-1.27-2.21-1.52-3.19l-4.31,1.91-4.38,9.89Z"
		/>
		<g>
			<path class="cls-7" d="M94.25,37.51s5.37-7.99,18.08-10.57c0,0-7.18,5.45-7.8,14.07" />
			<path
				class="cls-6"
				d="M104.53,43.01s-.1,0-.15,0c-1.1-.08-1.93-1.04-1.85-2.14,.29-3.96,1.79-7.28,3.46-9.83-6.93,3.08-10.06,7.54-10.1,7.6-.62,.91-1.86,1.15-2.77,.53-.91-.62-1.16-1.85-.54-2.77,.24-.35,5.98-8.7,19.34-11.41,.91-.19,1.83,.29,2.22,1.14,.38,.85,.13,1.85-.61,2.42-.06,.05-6.47,5.05-7.01,12.62-.08,1.05-.95,1.86-1.99,1.86Z"
			/>
		</g>
		<g>
			<path class="cls-7" d="M109.47,44.12s7.28-6.3,20.22-5.45c0,0-8.36,3.38-11.22,11.52" />
			<path
				class="cls-6"
				d="M118.47,52.19c-.22,0-.44-.04-.66-.11-1.04-.37-1.59-1.51-1.22-2.55,1.31-3.74,3.64-6.56,5.93-8.58-7.5,1.15-11.68,4.64-11.74,4.68-.84,.71-2.1,.62-2.82-.22-.72-.84-.63-2.09,.21-2.81,.32-.28,8.06-6.83,21.66-5.93,.93,.06,1.7,.76,1.84,1.68s-.36,1.82-1.23,2.17c-.07,.03-7.56,3.17-10.08,10.33-.29,.82-1.06,1.34-1.89,1.34Z"
			/>
		</g>
		<g>
			<path class="cls-7" d="M121.96,55.51s8.45-4.61,20.92-1.02c0,0-8.88,1.52-13.41,8.87" />
			<path
				class="cls-6"
				d="M129.46,65.36c-.36,0-.72-.1-1.05-.3-.94-.58-1.23-1.81-.65-2.75,2.08-3.38,4.97-5.64,7.63-7.13-7.61-.49-12.41,2.05-12.47,2.08-.97,.53-2.18,.17-2.71-.8s-.17-2.18,.8-2.71c.38-.2,9.32-4.96,22.43-1.18,.9,.26,1.5,1.1,1.44,2.03s-.74,1.7-1.66,1.86c-.08,.01-8.07,1.49-12.05,7.95-.38,.61-1.03,.95-1.7,.95Z"
			/>
		</g>
		<g>
			<path class="cls-7" d="M130.23,70.26s9.32-2.41,20.53,4.11c0,0-8.99-.69-15.17,5.34" />
			<path
				class="cls-6"
				d="M135.59,81.71c-.52,0-1.04-.2-1.43-.6-.77-.79-.75-2.06,.04-2.83,2.84-2.77,6.18-4.26,9.12-5.05-7.23-2.31-12.53-1.04-12.59-1.02-1.07,.27-2.16-.38-2.43-1.45-.27-1.07,.37-2.15,1.43-2.43,.41-.11,10.25-2.54,22.04,4.32,.81,.47,1.18,1.43,.9,2.32-.28,.89-1.13,1.47-2.06,1.4-.08,0-8.19-.52-13.62,4.77-.39,.38-.89,.57-1.4,.57Z"
			/>
		</g>
		<g>
			<path class="cls-7" d="M133.9,86.18s9.59,.86,17.96,10.76c0,0-8.23-3.67-16.08-.07" />
			<path
				class="cls-6"
				d="M151.86,98.94c-.27,0-.55-.06-.81-.17-.07-.03-7.54-3.24-14.43-.08-1,.46-2.19,.02-2.65-.98-.46-1-.02-2.19,.98-2.65,3.61-1.66,7.26-1.93,10.3-1.69-6.06-4.64-11.46-5.19-11.53-5.19-1.1-.1-1.91-1.07-1.81-2.17,.1-1.1,1.09-1.9,2.17-1.81,.42,.04,10.51,1.05,19.31,11.46,.6,.71,.63,1.75,.07,2.49-.39,.52-.99,.8-1.6,.8Z"
			/>
		</g>
		<g>
			<path class="cls-7" d="M131.96,104.83s9.05,3.29,14.61,15.01c0,0-7.02-5.65-15.53-4.19" />
			<path
				class="cls-6"
				d="M146.57,121.83c-.44,0-.89-.15-1.25-.44-.06-.05-6.45-5.06-13.93-3.77-1.09,.18-2.12-.54-2.31-1.63-.19-1.09,.54-2.12,1.63-2.31,3.91-.68,7.51-.01,10.39,1-4.67-6.04-9.75-7.95-9.81-7.97-1.04-.38-1.57-1.52-1.2-2.56,.38-1.04,1.53-1.58,2.56-1.2,.4,.15,9.89,3.71,15.73,16.03,.4,.84,.16,1.85-.57,2.43-.36,.29-.8,.43-1.24,.43Z"
			/>
		</g>
		<path
			class="cls-4"
			d="M138.8,99.25c0-19.36-6.12-35.61-17.71-46.99-9.57-9.4-22.46-15.16-36.38-16.27l-21.2-.44c-1.31,3.11-3.5,5.3-7.06,8.24-3.93,3.25-5.18,6.47-6.01,8.6l-.16,.41c-.89,2.27-1.55,4.26-2.14,6.01-1.42,4.26-2.54,7.62-6.04,12.72l-11.53,16.21c-3.58,4.46-3.18,10.65,.91,14.13,4.16,3.54,14.26,6.23,17.72,6.23,.69,0,1.68-.08,2.39-.77,1.56-1.51,2.63-3.18,3.67-4.8,2.28-3.56,3.92-6.14,9.82-6.17,8.65-.04,16.12-7.88,19.71-11.64l.03-.03,.03-.04,2.16-2.5c1.45,2.31,3.11,6.07,1.98,10-.47,1.65-1.21,3.2-2.27,4.74-2.03,2.97-5.02,5.57-7.94,7.94l-.19,.16c-7.44,6.03-19.74,15.99-21.86,29.97v.43c.68-.23,1.4-.45,2.17-.64,23.31-4.71,70.65,0,70.65,0,.5,.13,.98,.27,1.44,.41v-.2c.4-1.57,.98-3.6,1.62-5.84,2.61-9.15,6.17-21.68,6.17-29.89Z"
		/>
		<path class="cls-4" d="M63.51,35.55s5.51-9.81,12.88-14.26c17.85-10.77,30.68-1.73,31.89-1.22s-29.76,6.89-23.44,20.94" />
		<g class="cls-1">
			<path
				class="cls-7"
				d="M67.88,42.71c7.94-4.94,8.52-21.43,8.52-21.43-2.2,0-7.07,6.09-9.31,8.94l-2.98,5.53c-1.39,3.33-3.66,5.63-7.35,8.68-3.71,3.06-4.85,6-5.68,8.14l-.16,.42c-.88,2.23-1.5,4.11-2.11,5.94-1.44,4.32-2.57,7.73-6.14,12.91l-11.48,16.14c-.16,.15-.3,.31-.44,.46-3.71,3.83-.96,7.64-.96,7.64,0,0,18.75-23.12,21.19-26.36,4.43-5.9,1.65-17.52,16.91-27.01Z"
			/>
		</g>
		<g class="cls-2">
			<path
				d="M93.89,68.9c-1.79,3.44-7.27,12.13-7.27,12.13,0,0,.58-.29,0,1.71,0,0,2.05-.23,2.43,6.29,.1,1.7-2.68,6.47-.26,5.18,4.95-2.64,7.34-16.28,7.3-19.28-.05-3.01-.41-9.46-2.2-6.02Z"
			/>
		</g>
		<g class="cls-2">
			<path
				d="M69.16,94.58c-8.98-4.41-11.25-9.65-14.7,.71-3.35,10.04-8.43,11.76-5.01,12.8,3.42,1.04,7.63-10.31,10.62-10.49,2.99-.18,12.46-1.37,9.1-3.01Z"
			/>
		</g>
		<path
			class="cls-6"
			d="M56.75,137.41c-.41,0-.82-.13-1.16-.37-.52-.38-.84-.98-.84-1.63v-.44c0-.1,0-.2,.02-.3,2.23-14.75,14.97-25.07,22.58-31.23l.19-.15c2.81-2.27,5.66-4.76,7.55-7.51,.93-1.36,1.59-2.73,2-4.16,.6-2.08,.22-4.14-.48-5.91l-.22,.25s-.08,.09-.1,.11c-3.81,4-11.68,12.25-21.18,12.29-4.81,.02-5.92,1.77-8.15,5.24-1.05,1.64-2.23,3.5-3.97,5.17-1.37,1.33-3.18,1.33-3.78,1.33-3.81,0-14.46-2.83-19.02-6.71-4.9-4.16-5.43-11.55-1.21-16.86l11.5-16.17c3.32-4.83,4.35-7.92,5.77-12.19,.6-1.8,1.27-3.81,2.17-6.12l.16-.41c.84-2.18,2.26-5.84,6.6-9.42,3.32-2.74,5.33-4.74,6.49-7.47,.43-1.02,1.6-1.49,2.62-1.06,1.02,.43,1.49,1.6,1.06,2.62-1.47,3.47-3.91,5.93-7.62,9-3.53,2.92-4.62,5.73-5.41,7.78l-.16,.42c-.87,2.21-1.52,4.17-2.09,5.89-1.42,4.26-2.64,7.92-6.3,13.24l-11.55,16.24s-.05,.06-.07,.09c-2.89,3.6-2.61,8.59,.64,11.35,3.64,3.09,13.25,5.75,16.43,5.75,.65,0,.9-.11,1-.2,1.4-1.35,2.36-2.85,3.38-4.44,2.32-3.63,4.51-7.06,11.5-7.09,7.8-.04,14.87-7.46,18.27-11.02l2.16-2.5c.42-.48,1.03-.74,1.67-.69,.63,.05,1.21,.39,1.54,.93,1.73,2.77,3.52,7.02,2.21,11.62-.53,1.86-1.36,3.6-2.54,5.32-2.18,3.18-5.29,5.9-8.33,8.36l-.19,.15c-6.68,5.41-17.56,14.22-20.61,26.11,23.06-4.35,66.27-.3,70.27,.09,.33-1.2,.73-2.59,1.17-4.17,2.57-9.04,6.1-21.41,6.1-29.34,0-18.81-5.92-34.57-17.11-45.56-9.22-9.05-21.69-14.63-35.14-15.7-1.1-.09-1.92-1.05-1.83-2.15,.09-1.1,1.06-1.93,2.15-1.83,14.38,1.15,27.74,7.12,37.62,16.83,11.98,11.76,18.31,28.51,18.31,48.42,0,8.49-3.61,21.17-6.25,30.44-.64,2.23-1.16,4.07-1.54,5.54-.01,.61-.31,1.18-.8,1.55-.51,.38-1.18,.5-1.79,.31-.39-.12-.79-.24-1.2-.34-2.96-.29-47.8-4.48-69.9-.02-.6,.15-1.26,.35-1.92,.58-.21,.07-.43,.11-.64,.11Z"
		/>
		<path
			class="cls-6"
			d="M77.16,134.88c-.06,0-.12,0-.19,0-1.1-.1-1.91-1.08-1.81-2.18,1-10.83,6.69-20.68,10.46-27.2l.12-.21c1.8-3.12,3.58-6.46,4.35-9.72,.38-1.61,.51-3.11,.37-4.6-.29-3.29-2.68-5.74-4.64-7.21-.88-.66-1.06-1.92-.4-2.8,.66-.88,1.92-1.06,2.8-.4,2.61,1.96,5.8,5.3,6.22,10.05,.17,1.93,.02,3.85-.47,5.88-.89,3.75-2.83,7.4-4.78,10.79l-.12,.21c-3.59,6.22-9.02,15.61-9.94,25.57-.1,1.04-.97,1.82-1.99,1.82Z"
		/>
		<g>
			<path
				class="cls-7"
				d="M45.62,157.55v3.45h97.25v-3.46c.03-10.36,.05-19.39-13.3-22.78,0,0-47.33-4.71-70.65,0h0c-13.36,3.39-13.33,12.42-13.31,22.78Z"
			/>
			<g class="cls-1">
				<path
					class="cls-7"
					d="M128.69,134.71c-9.19-1.86-22.2-2.21-34.44-1.98-12.25-.23-25.26,.12-34.44,1.98-8.99,2.28-11.76,7.19-12.61,13.33,0,0,7.63-7.36,47.05-7.36s47.05,7.36,47.05,7.36c-.85-6.14-3.62-11.05-12.61-13.33Z"
				/>
			</g>
			<path
				class="cls-6"
				d="M142.87,163H45.62c-1.1,0-2-.9-2-2v-3.45c-.03-10.3-.06-20.95,14.81-24.72,23.44-4.74,69.39-.24,71.33-.05,.1,0,.2,.03,.29,.05,14.87,3.78,14.84,14.42,14.81,24.72v3.45c0,1.1-.9,2-2,2Zm-95.25-4h93.25v-1.46c.03-10.31,.05-17.77-11.65-20.8-2.95-.28-47.8-4.48-69.9-.02-11.75,2.99-11.73,10.46-11.7,20.82h0v1.46Z"
			/>
		</g>
		<path
			class="cls-6"
			d="M84.84,43.01c-.76,0-1.49-.44-1.82-1.18-1.32-2.93-1.37-5.81-.16-8.56,3.1-7.03,13.99-11.28,20.34-13.44-10.15-3.98-19.47-.62-25.77,3.17-6.85,4.13-12.12,13.43-12.17,13.53-.54,.96-1.76,1.31-2.72,.77-.96-.54-1.31-1.76-.77-2.72,.24-.42,5.85-10.32,13.6-14.99,11.39-6.87,22.93-7.4,33.38-1.53,.16,.09,.28,.16,.36,.2,.76,.32,1.25,1.09,1.21,1.95-.06,1.51-1,1.82-3.78,2.73-4.72,1.56-17.26,5.69-20.02,11.95-.75,1.69-.7,3.43,.15,5.31,.45,1.01,0,2.19-1,2.64-.27,.12-.54,.18-.82,.18Z"
		/>
		<path class="cls-6" d="M67.4,53.68c-4.46,1.83-5.67,9.47-5.67,9.47,4.34-3.78,6.43,.55,10.76-2.87,3.61-2.86-.71-8.39-5.08-6.6Z" />
		<path
			class="cls-6"
			d="M60.19,126.91c-.7,0-1.38-.37-1.75-1.02-.54-.96-.2-2.18,.77-2.72,.32-.18,8-4.39,20.73-3.35,1.1,.09,1.92,1.05,1.83,2.16s-1.07,1.93-2.16,1.83c-11.53-.94-18.38,2.82-18.45,2.86-.31,.17-.65,.26-.98,.26Z"
		/>
		<path
			class="cls-6"
			d="M71.43,113.11c-.81,0-1.57-.49-1.87-1.29-.39-1.03,.12-2.18,1.15-2.58,.27-.1,6.79-2.55,14.97-1.2,1.09,.18,1.83,1.21,1.65,2.3s-1.21,1.82-2.3,1.65c-7.06-1.17-12.83,.97-12.89,.99-.23,.09-.47,.13-.71,.13Z"
		/>
		<path
			class="cls-6"
			d="M41.03,96.2c-.89,0-1.7-.6-1.93-1.5-.29-1.1-.72-1.83-1.18-2-.61-.22-1.63,.29-1.91,.48-.9,.64-2.15,.42-2.79-.48-.64-.9-.42-2.15,.48-2.79,.29-.2,2.89-1.97,5.6-.98,1.79,.65,3.03,2.25,3.68,4.75,.28,1.07-.36,2.16-1.43,2.44-.17,.04-.34,.06-.51,.06Z"
		/>
		<path
			class="cls-6"
			d="M113.35,128.38c-.3,0-.6-.07-.88-.21-5.58-2.74-9.05-7.9-9.05-13.44,0-1.1,.9-2,2-2s2,.9,2,2c0,3.72,2.25,7.24,5.94,9.38,3.69-2.14,5.94-5.66,5.94-9.38,0-1.1,.9-2,2-2s2,.9,2,2c0,5.55-3.47,10.7-9.05,13.44-.28,.14-.58,.21-.88,.21Z"
		/>
		<path
			class="cls-6"
			d="M97.47,128.38c-.3,0-.6-.07-.88-.21-5.58-2.74-9.05-7.9-9.05-13.44,0-1.1,.9-2,2-2s2,.9,2,2c0,3.72,2.25,7.24,5.94,9.38,3.69-2.14,5.94-5.66,5.94-9.38,0-1.1,.9-2,2-2s2,.9,2,2c0,5.55-3.47,10.7-9.05,13.44-.28,.14-.58,.21-.88,.21Z"
		/>
		<path
			class="cls-6"
			d="M121.28,116.73c-.3,0-.6-.07-.88-.21-5.58-2.74-9.05-7.89-9.05-13.44,0-1.1,.9-2,2-2s2,.9,2,2c0,3.72,2.25,7.24,5.94,9.38,3.69-2.14,5.94-5.66,5.94-9.38,0-1.1,.9-2,2-2s2,.9,2,2c0,5.55-3.47,10.7-9.05,13.44-.28,.14-.58,.21-.88,.21Z"
		/>
		<path
			class="cls-6"
			d="M113.35,105.08c-.3,0-.6-.07-.88-.21-5.58-2.74-9.05-7.89-9.05-13.44,0-1.1,.9-2,2-2s2,.9,2,2c0,3.72,2.25,7.24,5.94,9.38,3.69-2.14,5.94-5.66,5.94-9.38,0-1.1,.9-2,2-2s2,.9,2,2c0,5.55-3.47,10.7-9.05,13.44-.28,.14-.58,.21-.88,.21Z"
		/>
		<path
			class="cls-6"
			d="M121.28,93.44c-.3,0-.6-.07-.88-.21-5.58-2.74-9.05-7.9-9.05-13.44,0-1.1,.9-2,2-2s2,.9,2,2c0,3.72,2.25,7.24,5.94,9.38,3.69-2.14,5.94-5.66,5.94-9.38,0-1.1,.9-2,2-2s2,.9,2,2c0,5.55-3.47,10.7-9.05,13.44-.28,.14-.58,.21-.88,.21Z"
		/>
		<path
			class="cls-6"
			d="M100.72,83.02c-.3,0-.6-.07-.88-.21-4.07-2-6.59-5.76-6.59-9.83,0-1.1,.9-2,2-2s2,.9,2,2c0,2.24,1.31,4.37,3.47,5.74,2.17-1.38,3.47-3.51,3.47-5.74,0-1.1,.9-2,2-2s2,.9,2,2c0,4.06-2.53,7.83-6.59,9.83-.28,.14-.58,.21-.88,.21Z"
		/>
		<path
			class="cls-6"
			d="M105.41,116.73c-.3,0-.6-.07-.88-.21-5.58-2.74-9.05-7.89-9.05-13.44,0-1.1,.9-2,2-2s2,.9,2,2c0,3.72,2.25,7.24,5.94,9.38,3.69-2.14,5.94-5.66,5.94-9.38,0-1.1,.9-2,2-2s2,.9,2,2c0,5.55-3.47,10.7-9.05,13.44-.28,.14-.58,.21-.88,.21Z"
		/>
	</g>
</svg>
