<svg
	version="1.1"
	id="Layer_1"
	xmlns="http://www.w3.org/2000/svg"
	xmlns:xlink="http://www.w3.org/1999/xlink"
	x="0px"
	y="0px"
	viewBox="0 0 180 180"
	style="enable-background: new 0 0 180 180"
	xml:space="preserve"
>
	<defs>
		<style>
			.cls-1 {
				fill: #fff;
			}
			.cls-2 {
				opacity: 0.2;
			}
			.cls-3 {
				opacity: 0.15;
			}
			.cls-4 {
				letter-spacing: -0.02em;
			}
			.cls-5 {
				fill: #f8f8f8;
			}
			.cls-6 {
				font-family: Montserrat-Medium, Montserrat;
				font-size: 12px;
			}
			.cls-7 {
				fill: #1a1a1a;
			}
		</style>
	</defs>
	<g>
		<path
			class="cls-5"
			d="M129.36,117.33c-23.88-26.24-3.99-53.27,8.18-72.91l-16.22-2.63c-.58,5.01-4.59,8.88-9.46,8.88-5.26,0-9.53-4.55-9.53-10.16,0-.61,.05-1.2,.15-1.77h-24.98c.1,.57,.15,1.16,.15,1.77,0,5.61-4.27,10.16-9.53,10.16-4.86,0-8.88-3.87-9.46-8.88l-16.22,2.63c12.17,19.64,32.06,46.67,8.18,72.91h78.73Z"
		/>
		<circle class="cls-5" cx="90" cy="26.59" r="12.1" />
		<g class="cls-2">
			<path
				class="cls-1"
				d="M79.27,32.03c0-8.66,7.02-15.69,15.69-15.69,.54,0,1.07,.03,1.6,.08-1.89-1.22-4.14-1.93-6.56-1.93-6.68,0-12.1,5.42-12.1,12.1,0,2.02,.5,3.92,1.37,5.59,0-.05,0-.1,0-.15Z"
			/>
		</g>
		<g class="cls-3">
			<path
				d="M97.54,17.13c.65,1.55,1.02,3.25,1.02,5.04,0,7.16-5.81,12.97-12.97,12.97-1.79,0-3.49-.36-5.04-1.02,2.22,2.78,5.63,4.56,9.46,4.56,6.68,0,12.1-5.42,12.1-12.1,0-3.83-1.78-7.24-4.56-9.46Z"
			/>
		</g>
		<path
			class="cls-7"
			d="M90,40.68c-7.77,0-14.1-6.32-14.1-14.1s6.32-14.1,14.1-14.1,14.1,6.32,14.1,14.1-6.32,14.1-14.1,14.1Zm0-24.19c-5.57,0-10.1,4.53-10.1,10.1s4.53,10.1,10.1,10.1,10.1-4.53,10.1-10.1-4.53-10.1-10.1-10.1Z"
		/>
		<path class="cls-3" d="M118.81,89.27h0s-10.44,10.97-3.92,27.92c.02,.05,.04,.1,.06,.14h14.41c-10.39-11.42-12.49-14.88-10.55-28.07Z" />
		<g class="cls-2"><path class="cls-1" d="M57.49,117.33h0c15.32-18.84,0-42.74,0-42.74h0c6.05,17.41,7.46,27.02-6.85,42.74h6.85Z" /></g>
		<g class="cls-3">
			<polygon
				points="102.1 45.2 102.28 56.2 104.63 62.17 108.59 64.52 112.17 63.71 115.4 60.22 118.11 54.54 120.36 46.79 116.66 49.31 113.21 50.58 109.88 50.46 105.56 48.14 102.1 45.2"
			/>
		</g>
		<g class="cls-3">
			<polygon
				points="77.9 45.2 77.72 56.2 75.37 62.17 71.41 64.52 67.83 63.71 64.6 60.22 61.89 54.54 59.64 46.79 63.34 49.31 66.79 50.58 70.12 50.46 74.44 48.14 77.9 45.2"
			/>
		</g>
		<g class="cls-3"><path d="M42.45,44.42s10.29,.3,13.08,5.29,5.95,15.34,15.07,14.87l-4.99-10.74-5.56-6.77-1.37-5.27-16.22,2.63Z" /></g>
		<path
			class="cls-7"
			d="M70.68,66.58c-1.21,0-2.39-.31-3.51-.93-7.47-4.16-10.19-21.59-10.48-23.56-.16-1.09,.6-2.11,1.69-2.27,1.09-.17,2.11,.6,2.27,1.69,.97,6.7,4.13,18.23,8.47,20.64,.98,.55,1.97,.57,3.1,.08,4.82-2.1,4.59-15.32,3.32-23.16-.18-1.09,.56-2.12,1.65-2.3,1.09-.17,2.12,.56,2.3,1.65,.39,2.39,3.55,23.45-5.67,27.47-1.05,.46-2.1,.69-3.14,.69Z"
		/>
		<g class="cls-3">
			<path d="M85.28,38.75l.44,.14c6.35,1.99,11.17,7.13,12.94,13.55,1.3,4.7,3.82,9.78,8.69,12.09l-5.13-11.74-.13-9.89-.39-4.15h-16.42Z" />
		</g>
		<g class="cls-3">
			<path d="M111.51,64.52s6.25-.86,12.86-13.17c2.45-4.56,7.42-7.28,12.55-6.63,.2,.03,.41,.06,.62,.09l-16.22-3.02-1.78,11.4-8.03,11.33Z" />
		</g>
		<path
			class="cls-7"
			d="M129.36,119.33H50.64c-.79,0-1.51-.47-1.83-1.19-.32-.72-.18-1.57,.35-2.15,24.68-27.13-.22-57.31-8.4-70.51-.35-.57-.4-1.28-.12-1.88,.28-.61,.84-1.04,1.5-1.14l16.22-2.63c.54-.08,1.09,.05,1.53,.38,.44,.33,.72,.82,.78,1.37,.47,4.05,3.68,7.11,7.47,7.11,4.15,0,7.53-3.66,7.53-8.16,0-.48-.04-.96-.12-1.44-.1-.58,.06-1.17,.44-1.62,.38-.45,.94-.71,1.53-.71h24.98c.59,0,1.15,.26,1.53,.71,.38,.45,.54,1.04,.44,1.62-.08,.48-.12,.96-.12,1.44,0,4.5,3.38,8.16,7.53,8.16,3.79,0,7-3.06,7.47-7.11,.06-.54,.34-1.04,.78-1.37,.44-.33,.99-.46,1.53-.38l16.22,2.63c.66,.11,1.22,.54,1.5,1.15,.28,.61,.23,1.31-.12,1.88-8.18,13.2-33.09,43.38-8.4,70.51,.53,.58,.67,1.43,.35,2.15-.32,.72-1.04,1.19-1.83,1.19Zm-74.47-4H125.1c-20.74-27.45-.18-54.13,9.17-69.41l-11.37-1.84c-1.45,5.02-5.89,8.6-11.03,8.6-6.28,0-11.41-5.33-11.53-11.93h-20.68c-.12,6.6-5.24,11.93-11.53,11.93-5.14,0-9.58-3.58-11.03-8.6l-11.37,1.84c9.35,15.28,29.91,41.96,9.17,69.41Z"
		/>
		<path class="cls-5" d="M50.64,117.33c3.55,9.51,10.94,16.8,20.1,19.85l1.06,.35h36.4l1.06-.35c9.16-3.05,16.55-10.34,20.1-19.85H50.64Z" />
		<g class="cls-3">
			<path
				d="M129.36,117.33c-3.55,9.51-10.94,16.8-20.1,19.85l-1.06,.35h-36.4l-1.06-.35c-5.08-1.69-9.61-4.69-13.25-8.64,1.81,.13,3.67,.2,5.57,.2,15.69,0,42.6-1.31,51.84-11.41h14.47Z"
			/>
		</g>
		<path
			class="cls-7"
			d="M108.2,139.54h-36.4c-.21,0-.43-.03-.63-.1l-1.06-.35c-9.78-3.26-17.56-10.93-21.34-21.05-.23-.61-.14-1.3,.23-1.84,.37-.54,.99-.86,1.64-.86h78.73c.66,0,1.27,.32,1.64,.86,.37,.54,.46,1.23,.23,1.84-3.78,10.12-11.56,17.79-21.34,21.05l-1.06,.35c-.2,.07-.42,.1-.63,.1Zm-36.07-4h35.75l.75-.25c7.74-2.58,14.07-8.31,17.71-15.95H53.66c3.64,7.64,9.97,13.37,17.71,15.95l.75,.25Z"
		/>
		<g>
			<path
				class="cls-5"
				d="M40.86,157.51v3.49h98.28v-3.49c.03-10.47,.05-19.59-13.44-23.02,0,0-47.83-4.76-71.39,0h0c-13.5,3.43-13.47,12.55-13.45,23.02Z"
			/>
			<g class="cls-2">
				<path
					class="cls-1"
					d="M124.81,134.44c-9.28-1.88-22.43-2.23-34.81-2-12.37-.24-25.52,.12-34.81,2-9.09,2.31-11.89,7.27-12.74,13.47,0,0,7.71-7.44,47.55-7.44s47.55,7.44,47.55,7.44c-.85-6.21-3.66-11.17-12.74-13.47Z"
				/>
			</g>
			<path
				class="cls-7"
				d="M139.14,163H40.86c-1.1,0-2-.9-2-2v-3.48c-.03-10.4-.06-21.15,14.95-24.96,23.68-4.78,70.12-.25,72.08-.05,.1,0,.2,.03,.29,.05,15.01,3.81,14.98,14.56,14.95,24.96v3.49c0,1.1-.9,2-2,2Zm-96.28-4h94.28v-1.49c.03-10.43,.05-17.97-11.79-21.04-2.97-.29-48.3-4.53-70.65-.02-11.89,3.02-11.87,10.59-11.84,21.06h0v1.49Z"
			/>
		</g>
		<path
			class="cls-7"
			d="M109.32,66.58c-1.03,0-2.09-.23-3.14-.69-9.21-4.02-6.06-25.08-5.67-27.47,.18-1.09,1.21-1.83,2.3-1.65,1.09,.18,1.83,1.21,1.65,2.3-1.28,7.84-1.5,21.05,3.32,23.16,1.13,.5,2.12,.47,3.1-.08,4.33-2.41,7.49-13.94,8.47-20.64,.16-1.09,1.18-1.86,2.27-1.69,1.09,.16,1.85,1.17,1.69,2.27-.29,1.97-3.01,19.4-10.48,23.56-1.12,.62-2.3,.93-3.51,.93Z"
		/>
	</g>
</svg>
