<svg
	version="1.1"
	id="Layer_1"
	xmlns="http://www.w3.org/2000/svg"
	xmlns:xlink="http://www.w3.org/1999/xlink"
	x="0px"
	y="0px"
	viewBox="0 0 180 180"
	style="enable-background: new 0 0 180 180"
	xml:space="preserve"
>
	<defs>
		<style>
			.cls-1,
			.cls-2 {
				fill: #fff;
			}
			.cls-2,
			.cls-3 {
				opacity: 0.2;
			}
			.cls-4 {
				fill: #e1e8ee;

			}
			.cls-5 {
				letter-spacing: -0.02em;
			}
			.cls-6 {
				fill: #4e4c4b;
			}
			.cls-7 {
				font-family: Montserrat-Medium, Montserrat;
				font-size: 12px;
			}
			.cls-8 {
				fill: #1a1a1a;
			}
		</style>
	</defs>

	<g>
		<g>
			<path
				class="cls-6"
				d="M31.3,47.4s9.62,26.98,21.06,40.01l-.75,15.14s-14.52,8.28-14.71,22.45c0,0-8.23-8.11-16.09-4.35s-10.62,16.16-10.62,16.16c0,0-11.4-32.7,0-59.95,11.4-27.25,19.24-31.76,19.24-31.76l1.87,2.29Z"
			/>
			<path class="cls-8" d="M56.51,67.73c8.5,2.85,9.3,9.72,9.3,9.72l4.95-8.98-10.27-.2-3.98-.54Z" />
			<g class="cls-4"><path d="M30.02,45.11s.31,28.67,20.25,57.69l6.43-1.75,5.66,.47-10.46-14.1-9.34-13.04-7.09-14.03-5.44-15.23Z" /></g>
			<g class="cls-4">
				<path
					d="M29.14,44.25s-9.11,16.82-8.42,36.87,.49,32.23-3.69,41.12l5.34-2.54,6.03,.65,8.05,4.66-6.94-23.48-3.87-23.27,.98-20.87,2.53-13.13Z"
				/>
			</g>
			<polygon
				class="cls-6"
				points="30.84 45.11 35.46 60.34 45.52 78.81 63.57 101.71 62.93 93.22 64.56 81.3 68.6 71.45 74.22 65.57 74.8 61.24 72.39 58.13 69.03 57.74 64.75 60.01 58.67 61.81 51.29 61.29 43.69 57.91 35.31 51.36 30.84 45.11"
			/>
			<g class="cls-4">
				<path d="M34.93,53.27s17.5,19.75,16.76,33.36l11.88,15.07v-17.08l6.2-16.61-13.26-.29-11.55-4.36-4.13-3.37-5.89-6.73Z" />
			</g>
			<g class="cls-4"><path d="M60.42,61.29s-3.29,2.81-4.36,6.55l8.64,.56,8.01-1.25,2.31-3.01-.72-4.13-3.54-2.39-10.34,3.68Z" /></g>
			<g>
				<path
					class="cls-8"
					d="M9.49,139.51c-.86,0-1.64-.56-1.9-1.39C-8.56,87.43,20.85,45.63,28.49,42.35c1.8-.78,3.06,0,3.61,.91,.02,.04,.04,.07,.06,.11,2,3.62,5.36,9.67,16.3,14.77,7.76,3.62,14.11,1.22,18.07-1.42,1.8-1.21,3.99-1.46,6-.71,2.07,.78,3.61,2.5,4.2,4.72,.05,.19,.09,.38,.13,.56,.4,1.98-.03,4.07-1.19,5.72-.91,1.3-2.17,2.22-3.62,2.65-9.99,14.86-6.66,31.07-6.54,31.61,.15,.66-.03,1.38-.55,1.89-.49,.48-1.16,.65-1.78,.53-6.06-1.12-11.14-.15-15.11,2.87-8.05,6.13-9.23,18.82-9.24,18.95-.06,.74-.53,1.38-1.21,1.67-.68,.29-1.46,.18-2.04-.28-5.76-4.65-10.65-6.25-14.54-4.78-7.35,2.8-9.55,15.61-9.58,15.74-.15,.91-.91,1.6-1.83,1.67-.05,0-.1,0-.15,0ZM28.85,46.86c-3.16,2.75-10.39,11.86-15.8,26.3-4.95,13.22-9.29,33.41-3.54,57.02,1.75-4.49,4.86-9.82,10.1-11.82,4.61-1.76,9.9-.63,15.76,3.37,.96-4.73,3.55-13.23,10.26-18.36,3.62-2.77,7.93-4.16,12.84-4.16h.1c-7.6-8.63-24.99-30.25-29.72-52.35Zm8.09,12.04c6.64,15.64,17.9,29.85,23.94,36.85-.24-6.11,.55-15.77,6.06-25.45-14.6,.97-24.1-5-30-11.4Zm8.47,2.2c5.81,3.89,13.94,6.44,25.13,4.78h0c.72-.11,1.38-.53,1.84-1.19,.53-.75,.73-1.71,.54-2.62-.02-.11-.05-.21-.08-.32-.26-.95-.89-1.69-1.75-2.01-.79-.3-1.65-.19-2.38,.29-3.94,2.63-12.04,6.36-21.98,1.72-.46-.21-.91-.43-1.35-.65Z"
				/>
				<path
					class="cls-8"
					d="M36.84,127.32c-.81,0-1.58-.5-1.88-1.31-.81-2.22-19.77-54.6-6.37-82.57,.48-1,1.67-1.42,2.67-.94,1,.48,1.42,1.67,.94,2.67-12.67,26.45,6.33,78.94,6.52,79.46,.38,1.04-.15,2.19-1.19,2.57-.23,.08-.46,.12-.69,.12Z"
				/>
			</g>
		</g>
		<g>
			<path
				class="cls-6"
				d="M149.16,47.4s-9.62,26.98-21.06,40.01l.75,15.14s14.52,8.28,14.71,22.45c0,0,8.23-8.11,16.09-4.35s10.62,16.16,10.62,16.16c0,0,11.4-32.7,0-59.95s-19.24-31.76-19.24-31.76l-1.87,2.29Z"
			/>
			<path class="cls-8" d="M123.49,67.73c-8.5,2.85-9.3,9.72-9.3,9.72l-4.95-8.98,10.27-.2,3.98-.54Z" />
			<g class="cls-4"><path d="M149.98,45.11s-.31,28.67-20.25,57.69l-6.43-1.75-5.66,.47,10.46-14.1,9.34-13.04,7.09-14.03,5.44-15.23Z" /></g>
			<g class="cls-4">
				<path
					d="M150.86,44.25s9.11,16.82,8.42,36.87c-.69,20.05-.49,32.23,3.69,41.12l-5.34-2.54-6.03,.65-8.05,4.66,6.94-23.48,3.87-23.27-.98-20.87-2.53-13.13Z"
				/>
			</g>
			<polygon
				class="cls-6"
				points="149.16 45.11 144.54 60.34 134.48 78.81 116.43 101.71 117.07 93.22 115.44 81.3 111.4 71.45 105.78 65.57 105.2 61.24 107.61 58.13 110.97 57.74 115.25 60.01 121.33 61.81 128.71 61.29 136.31 57.91 144.69 51.36 149.16 45.11"
			/>
			<g class="cls-4">
				<path d="M145.07,53.27s-17.5,19.75-16.76,33.36l-11.88,15.07v-17.08l-6.2-16.61,13.26-.29,11.55-4.36,4.13-3.37,5.89-6.73Z" />
			</g>
			<g class="cls-4"><path d="M119.58,61.29s3.29,2.81,4.36,6.55l-8.64,.56-8.01-1.25-2.31-3.01,.72-4.13,3.54-2.39,10.34,3.68Z" /></g>
			<g>
				<path
					class="cls-8"
					d="M170.51,139.51s-.1,0-.15,0c-.92-.07-1.68-.76-1.83-1.67-.02-.13-2.23-12.94-9.58-15.74-3.89-1.48-8.78,.13-14.54,4.78-.58,.47-1.36,.57-2.04,.28-.68-.29-1.14-.93-1.21-1.67-.01-.12-1.18-12.81-9.24-18.94-3.97-3.02-9.05-3.99-15.11-2.87-.06,.01-.11,.02-.17,.03-.16,.02-.31,.01-.46,0-.35-.04-.68-.17-.97-.4-.08-.06-.16-.13-.23-.2-.04-.04-.07-.08-.11-.12-.21-.26-.35-.56-.41-.87-.05-.23-.05-.47-.01-.71,0-.05,.02-.09,.03-.14,.11-.52,3.45-16.74-6.54-31.61-1.44-.43-2.7-1.35-3.62-2.65-1.16-1.65-1.59-3.73-1.19-5.72,.04-.18,.08-.37,.13-.55,.6-2.22,2.13-3.94,4.2-4.72,2.01-.76,4.2-.5,6,.71,3.96,2.65,10.31,5.04,18.07,1.42,10.97-5.11,14.32-11.18,16.31-14.8,.53-.96,1.8-1.79,3.65-.99,7.64,3.29,37.05,45.08,20.9,95.77-.27,.83-1.04,1.39-1.9,1.39Zm-14.52-21.95c1.53,0,3,.27,4.4,.8,5.24,2,8.35,7.33,10.1,11.82,5.75-23.62,1.41-43.8-3.54-57.02-5.41-14.44-12.64-23.55-15.8-26.3-4.73,22.1-22.11,43.72-29.72,52.35h.1c4.91,0,9.22,1.39,12.84,4.16,6.71,5.12,9.3,13.63,10.26,18.36,4.07-2.78,7.87-4.17,11.36-4.17Zm-42.94-47.26c5.51,9.68,6.3,19.34,6.06,25.45,6.04-7,17.3-21.21,23.94-36.85-5.9,6.4-15.4,12.36-30,11.4Zm-3.27-10.72c-.3,0-.61,.05-.91,.17-.85,.32-1.49,1.05-1.75,2.01-.03,.1-.05,.21-.07,.32-.18,.91,.01,1.87,.54,2.62,.46,.66,1.12,1.09,1.84,1.19,11.2,1.66,19.33-.89,25.14-4.78-.44,.22-.89,.44-1.35,.65-9.94,4.64-18.04,.91-21.98-1.72-.45-.3-.96-.46-1.47-.46Z"
				/>
				<path
					class="cls-8"
					d="M143.16,127.32c-.23,0-.46-.04-.69-.12-1.04-.38-1.57-1.53-1.19-2.57,.19-.53,19.19-53.02,6.52-79.46-.48-1-.06-2.19,.94-2.67,1-.48,2.19-.06,2.67,.94,13.4,27.97-5.56,80.35-6.37,82.57-.3,.81-1.06,1.31-1.88,1.31Z"
				/>
			</g>
		</g>
		<g>
			<path
				class="cls-6"
				d="M65.49,133.88c-.1,0-.09,.02,.02,.03l.32,.37,48.3,.54,.82-.91c.11,0,.13-.02,.02-.03,6.92-5.79,16.26-18.22,16.26-38.81s-13.36-35.6-21.92-44.11l-1.81-1.8-1.3,2.19c-1.48,2.51-8.73,14.32-9.04,44.18h-13.61c.47-44.54,17.84-61.39,18.01-61.56l.64-.64-.07-.91c-.48-6.66-6.1-11.88-12.78-11.88-7.07,0-12.81,5.75-12.81,12.82,0,3.25,1.24,6.36,3.41,8.7-2.89,2.32-8.59,7.24-14.34,14.11-10.72,12.79-16.39,26.24-16.39,38.89,0,20.59,9.34,33.02,16.26,38.81Z"
			/>
			<g class="cls-3">
				<path
					class="cls-1"
					d="M80.89,41c-2.65-1.21-26.18,21.54-30.42,43.67-3.95,20.6,1.8,28.28,1.36,28.1,.02-.13,2.14-47.12,31.9-69.21,0,0-1.34-1.87-2.84-2.56Z"
				/>
			</g>
			<g class="cls-3">
				<path class="cls-1" d="M91.18,22.43c-4.3,.38-11.67,6.6-12.29,15.21,0,0-5.89-5.52,.06-12.38,4.69-5.4,12.23-2.83,12.23-2.83Z" />
			</g>
			<g class="cls-4">
				<path
					d="M89.36,56.87c1.82-5.01,12.87-25.34,12.87-25.34l-5.49-9.1-2.85,.06c9.1,11.15-17.81,36.6-17.81,55.88,0,5.64,2.21,16.17,6.31,18.24,0,0,3.17-29.34,6.95-39.75Z"
				/>
			</g>
			<g class="cls-4">
				<path d="M116.95,60.81c22.5,54.6-27.45,72.85-27.45,72.85l25.47,.21c-2.41,1.83,15.88-5.19,15.88-40.97,0-20.76-13.9-32.1-13.9-32.1Z" />
			</g>
			<path
				class="cls-8"
				d="M114.13,136.82h-.02l-48.3-.54c-.58,0-1.12-.26-1.5-.7l-.14-.16c-.09-.08-.18-.16-.26-.25-5.25-4.49-16.69-16.95-16.69-40.1,0-13.13,5.83-27.02,16.85-40.18,4.97-5.93,9.91-10.44,13.09-13.12-1.7-2.46-2.62-5.38-2.62-8.41,0-8.17,6.65-14.82,14.81-14.82,7.73,0,14.22,6.03,14.78,13.73l.07,.91c.04,.58-.17,1.15-.58,1.56l-.64,.64c-.69,.68-16.45,16.7-17.38,58.14h9.61c.29-13.46,2.18-31.18,9.22-43.08l1.37-2.31c.31-.53,.86-.89,1.47-.97,.61-.08,1.23,.13,1.66,.57l1.81,1.8c5.57,5.54,22.5,22.4,22.5,45.53s-11.44,35.61-16.69,40.1c-.09,.1-.19,.19-.29,.28l-.64,.71c-.38,.42-.92,.66-1.49,.66Zm-47.42-4.53l46.54,.52,.22-.24,.03-.03c.06-.07,.13-.13,.2-.19,4.67-3.91,15.55-15.38,15.55-37.28,0-14.44-6.97-28.4-21.31-42.68l-.06,.1c-5.49,9.28-8.5,24.17-8.69,43.06-.01,1.1-.9,1.98-2,1.98h-13.61c-.53,0-1.05-.21-1.42-.59-.38-.38-.58-.89-.58-1.43,.47-44.41,17.73-62.1,18.59-62.95-.41-5.62-5.15-10.01-10.79-10.01-5.96,0-10.81,4.85-10.81,10.82,0,2.73,1.02,5.34,2.88,7.35,.38,.41,.57,.95,.52,1.5-.04,.55-.31,1.06-.74,1.41-2.83,2.27-8.42,7.1-14.06,13.83-10.42,12.43-15.92,25.43-15.92,37.61,0,21.79,10.76,33.25,15.47,37.22Z"
			/>
		</g>
		<path
			class="cls-4"
			d="M41.02,157.51v3.49h98.27v-3.49c.03-10.47,.05-19.59-13.44-23.02,0,0-47.83-4.76-71.38,0h0c-13.49,3.43-13.47,12.55-13.44,23.02Z"
		/>
		<path
			class="cls-2"
			d="M126.13,134.49c-9.59-1.87-23.18-2.23-35.97-1.99-12.79-.24-26.37,.12-35.97,1.99-9.39,2.3-12.29,7.24-13.17,13.43,0,0,7.97-7.42,49.14-7.42s49.13,7.41,49.14,7.42c-.88-6.19-3.78-11.13-13.17-13.43Z"
		/>	
		<path
			class="cls-8"
			d="M139.29,163H41.03c-1.1,0-2-.9-2-2v-3.48c-.03-10.4-.06-21.15,14.95-24.96,23.67-4.79,70.11-.25,72.07-.05,.1,0,.2,.03,.29,.05,15.01,3.81,14.98,14.56,14.95,24.96v3.49c0,1.1-.9,2-2,2Zm-96.26-4h94.26v-1.5c.03-10.42,.05-17.97-11.79-21.04-2.96-.29-48.29-4.53-70.64-.02-11.89,3.02-11.87,10.58-11.84,21.05h0v1.49Z"
		/>
	</g>
</svg>
