<svg
	version="1.1"
	id="Layer_1"
	xmlns="http://www.w3.org/2000/svg"
	xmlns:xlink="http://www.w3.org/1999/xlink"
	x="0px"
	y="0px"
	viewBox="0 0 180 180"
	style="enable-background: new 0 0 180 180"
	xml:space="preserve"
>
	<svg
		version="1.1"
		id="layer"
		xmlns="http://www.w3.org/2000/svg"
		xmlns:xlink="http://www.w3.org/1999/xlink"
		x="0px"
		y="0px"
		width="180px"
		height="180px"
		viewBox="0 0 180 180"
		style="enable-background: new 0 0 180 180"
		xml:space="preserve"
	>
		<style type="text/css">
			.st0 {
				fill: none;
			}
			.st1 {
				fill: #4e4c4b;
			}
			.st2 {
				opacity: 0.2;
				fill: #f8f8f8;
				enable-background: new;
			}
			.st3 {
				opacity: 0.2;
				enable-background: new;
			}
		</style>
		<g>
			<rect class="st0" width="180" height="180" />
			<g id="ferz_2_">
				<path
					class="st1"
					d="M127.7,133L127.7,133c-0.7-0.2-1.5-0.4-2.3-0.5h0.4l0.7-1.8l22.8-58.2l-17.3-7l-0.9-0.4l-0.2-1
      c-1.5-9-6.5-17.1-14-22.4c-12.8-9.2-18.3-13.3-26.3-23l-0.2-0.2l-0.2,0.2c-8,9.7-13.5,13.8-26.3,23c-7.5,5.3-12.5,13.4-14,22.4
      l-0.2,1l-0.9,0.4l-17.3,7l22.8,58.2l0.7,1.8h0.5c-0.8,0.1-1.5,0.3-2.2,0.5l0,0c-13.8,3.5-13.8,12.9-13.8,23.8v3.6H141v-3.6
      C141.4,145.9,141.4,136.5,127.7,133z"
				/>
				<path
					class="st2"
					d="M90.6,138.3c-43.1,0-47.5,4.8-47.5,4.8h-0.6c1.9-10.2,24.5-11.3,24.5-11.3h47.1c0,0,23.4,0.8,24.7,11.3h-0.6
      C138.1,143,133.6,138.3,90.6,138.3z"
				/>
				<g>
					<polygon class="st2" points="33,73.1 35.7,80.6 48,68.1 47.3,66.9       " />
					<path
						class="st2"
						d="M90.6,19.7v10.6c0,0,0.4,5-8.5,10.1s-21.4,7.9-28.9,18.4c-7.4,10.6,0.3-4,0.3-4s3.5-9.1,14.9-17.1
        S84,28.9,90.6,19.7z"
					/>
				</g>
				<g>
					<path
						class="st3"
						d="M51,65.3c8.1,9.2,39,29.3,39,29.3s27.7-19.8,29.5-30c1.8-10.1-2.7-19.8-7.7-25c0,0,8.6,0.5,15.5,14.6
        s4.5,14.2,4.5,14.2l-41.5,42.1c0,0-20.2-17.8-26.1-25c-5.6-6.8-15.3-17.8-15.3-17.8L51,65.3z"
					/>
					<path class="st3" d="M85.2,105.1c0,0-11.4,15.1-29,24.3c-17.6,9.2,22.8-4.8,35.6-19L85.2,105.1z" />
					<path class="st3" d="M142.8,70.9c0,0-10,26-25,42.2c-15.7,17-15.8,16.5-15.8,16.5l24.1,3.1l22.3-58.9L142.8,70.9z" />
				</g>
				<path
					d="M151.4,72.4c0-0.8-0.5-1.6-1.2-1.9l-17.1-6.9c-1.6-9.5-7-18.1-14.8-23.6c-12.6-9-18-13.1-25.9-22.6l-0.2-0.2
      c-0.4-0.5-0.9-0.7-1.5-0.7s-1.1,0.2-1.5,0.7L89,17.5C81.1,27,75.7,31.1,63.1,40.1c-7.8,5.6-13.2,14.2-14.8,23.6l-17.1,6.9
      c-1,0.4-1.5,1.6-1.1,2.6l22.7,58l-1.4,0.4v0.1C38,136,38,146.6,38,156.8v5.6h105.5v-5.6c0-10.2,0.1-20.8-13.3-25.1v-0.1l-1.6-0.4
      l22.7-57.9C151.4,73,151.4,72.7,151.4,72.4z M51.9,65.4l0.2-1c1.4-8.5,6.2-16.2,13.2-21.1c12.2-8.8,17.8-13,25.3-21.7
      c7.5,8.8,13.2,13,25.3,21.8c7,5,11.8,12.7,13.2,21.1l0.2,1c0.1,0.3,0.2,0.6,0.4,0.9c-6.8,8.9-14.1,17.4-21.9,25.4
      c-4.2,4.3-10.2,10.1-17.2,16l-0.6-0.4c-5.6-4.7-11.2-9.9-16.6-15.5c-7.8-8-15.2-16.6-21.9-25.5C51.7,66,51.8,65.7,51.9,65.4z
       M34.3,73.5L47.8,68c7,9.2,14.6,18.1,22.7,26.4c5.5,5.7,11.1,10.9,16.9,15.8l0,0c-1,0.8-1.9,1.5-2.9,2.3c-0.2,0.1-0.4,0.3-0.5,0.4
      c-1,0.7-1.9,1.4-2.8,2.1l-0.6,0.4c-0.7,0.5-1.5,1-2.2,1.6c-0.5,0.4-1,0.7-1.5,1c-0.6,0.4-1.2,0.8-1.8,1.2c-0.8,0.5-1.6,1-2.4,1.6
      l-0.4,0.3c-0.3,0.2-0.6,0.4-0.8,0.5c-1.1,0.6-2.1,1.3-3.1,1.9c-0.4,0.2-0.8,0.4-1.1,0.6l-0.4,0.2c-3.5,1.9-6.8,3.6-9.9,4.9
      l-0.5,0.2L34.3,73.5z M139.3,156.7v1.6H41.7v-1.6c0-10.8,0-18.7,12.3-21.8l0.6-0.1c0.4-0.1,0.8-0.2,1.3-0.3l0,0l0,0
      c1-0.2,2.1-0.4,3.3-0.5c8.8-1.1,19-1.7,31.4-1.7c12.3,0,22.6,0.5,31.4,1.7c1.2,0.1,2.2,0.3,3.2,0.5l0,0c0.4,0.1,0.9,0.2,1.3,0.3
      l0.7,0.2C139.4,138.1,139.4,145.9,139.3,156.7z M124.8,129.8c-0.8-0.1-1.6-0.3-2.3-0.4c-8.9-1.1-19.3-1.7-31.9-1.7
      c-8.7,0-16.4,0.3-23.2,0.8c0.4-0.2,0.8-0.4,1.2-0.7l0.4-0.2c0.4-0.2,0.8-0.4,1.2-0.7c1.1-0.6,2.2-1.3,3.2-1.9
      c0.3-0.2,0.6-0.4,0.9-0.6l0.4-0.2c0.8-0.5,1.7-1,2.5-1.6c0.6-0.4,1.2-0.8,1.8-1.2c0.5-0.3,1-0.7,1.6-1.1c0.8-0.5,1.5-1.1,2.3-1.6
      l0.6-0.4c2.9-2.1,5.7-4.3,8.3-6.5l0.1-0.1l0,0c7.7-6.3,14.2-12.6,18.7-17.3c8.1-8.3,15.7-17.1,22.7-26.4l13.5,5.5L124.8,129.8z"
				/>
			</g>
		</g>
	</svg>
</svg>
