<svg
	version="1.1"
	id="Layer_1"
	xmlns="http://www.w3.org/2000/svg"
	xmlns:xlink="http://www.w3.org/1999/xlink"
	x="0px"
	y="0px"
	viewBox="0 0 180 180"
	style="enable-background: new 0 0 180 180"
	xml:space="preserve"
>
	<defs>
		<style>
			.clsN-1 {
				fill: none;
			}
			.clsN-2 {
				fill: #4e4c4b;
			}
			.clsN-3,
			.clsN-5 {
				fill: #fff;
			}
			.clsN-3,
			.clsN-4 {
				opacity: 0.2;
			}
			.clsN-6 {
				fill: #1a1a1a;
			}
		</style>
	</defs>
	<rect class="clsN-1" width="180" height="180" />
	<path
		class="clsN-2"
		d="M73.07,20.25h-.83c-2.72,0-5.43,2.48-6.16,5.64l-1.45,6.88c-1.32,3.14-3.54,5.36-7.13,8.32a19.11,19.11,0,0,0-6.06,8.69l-.17.42c-.9,2.29-1.56,4.3-2.16,6.07A43.59,43.59,0,0,1,43,69.12L31.37,85.5c-3.62,4.51-3.22,10.76.92,14.27s14.4,6.3,17.9,6.3a3.37,3.37,0,0,0,2.42-.78,24.78,24.78,0,0,0,3.7-4.85c2.31-3.6,4-6.2,9.93-6.23,8.73,0,16.28-7.95,19.91-11.76l0,0,0,0,2.18-2.52c1.46,2.33,3.14,6.13,2,10.11a16.46,16.46,0,0,1-2.3,4.79,40.35,40.35,0,0,1-8,8l-.19.16c-7.52,6.08-20,16.15-22.08,30.28-13.33,3.64-13.3,12.93-13.27,23.62v3.61H146.1v-3.6c0-10.69.06-20-13.28-23.63.41-1.59,1-3.64,1.64-5.9,2.63-9.24,6.24-21.9,6.24-30.2,0-19.56-6.19-36-17.89-47.47A59,59,0,0,0,86.05,33.21L73.66,20.84l-.59-.59Z"
	/>
	<path
		class="clsN-3"
		d="M95.71,138.41c43.07,0,47.54,4.75,47.54,4.75h.59c-1.93-10.18-24.49-11.3-24.49-11.3H72.24s-23.36.81-24.66,11.3h.59S52.64,138.41,95.71,138.41Z"
	/>
	<g class="clsN-4">
		<path
			class="clsN-5"
			d="M69.64,40.21c8.06-5,2.6-18,2.6-18a5,5,0,0,0-5,4l-1.46,6.92c-1.41,3.38-3.71,5.7-7.46,8.8a18,18,0,0,0-5.76,8.26l-.16.42c-.89,2.26-1.52,4.17-2.14,6a44.74,44.74,0,0,1-6.22,13.1L32.42,86.14c-.15.15-.3.31-.44.47a6,6,0,0,0-1,7.74S50,70.9,52.49,67.61C57,61.63,54.16,49.84,69.64,40.21Z"
		/>
	</g>
	<path class="clsN-6" d="M70.78,49.77c-5.23,2.14-6.64,11.09-6.64,11.09,5.08-4.42,7.53.65,12.59-3.36C81,54.16,75.9,47.67,70.78,49.77Z" />
	<path
		class="clsN-4"
		d="M94.87,66.07c-1.82,3.49-6.33,10.57-6.33,10.57s-.47,1.43-1.05,3.46c0,0,2.08-.23,2.47,6.39.1,1.72.93,7.76,2,5.18C95,84.23,97.14,75.23,97.1,72.18S96.68,62.58,94.87,66.07Z"
	/>
	<path
		class="clsN-4"
		d="M85.17,35.15S126,40.22,126,79.26c0,26.14-17.38,33.44-22,51,0,0,19.33.15,27.88,4.19,0,0,9.18-24.84,9.18-39.56C141.05,79.83,129.61,34,85.17,35.15Z"
	/>
	<path class="clsN-4" d="M70.12,92.2c-9.11-4.47-11.41-9.79-14.91.72-3.4,10.18-8.55,11.93-5.09,13s7.74-10.45,10.77-10.64S73.53,93.87,70.12,92.2Z" />
	<path
		class="clsN-6"
		d="M72.24,22.25l12.93,12.9c25.26,1.71,53.53,20.1,53.53,62,0,11.12-7,31.49-8.29,37.57,14.39,3.05,13.69,11.63,13.69,23.76H46.54c0-12-.68-20.47,13.08-23.63C61,120.66,74,110.31,81.34,104.33a41.62,41.62,0,0,0,8.41-8.44,18.34,18.34,0,0,0,2.57-5.37c1.82-6.37-2.3-12.09-3.78-13.88l-3.83,4.43C80.85,85.12,74,92.18,66.23,92.21c-10.05.05-10.29,7.09-15,11.65a1.69,1.69,0,0,1-1,.21c-3.27,0-12.92-2.68-16.61-5.82-3.22-2.74-3.64-7.82-.62-11.54l11.7-16.46c5.23-7.6,5.46-11.65,8.48-19.32a17.36,17.36,0,0,1,5.64-8.3c3.81-3.15,6.28-5.61,7.77-9.27l1.48-7c.5-2.16,2.39-4.09,4.21-4.09m1.66-4H72.24c-3.68,0-7.16,3.09-8.11,7.19v.08l-1.39,6.64c-1.18,2.68-3.14,4.62-6.49,7.39a20.82,20.82,0,0,0-6.66,9.51l-.16.41c-.92,2.34-1.6,4.37-2.19,6.17A41.6,41.6,0,0,1,41.38,68L29.77,84.3C25.52,89.65,26,97.09,31,101.3c4.6,3.91,15.36,6.77,19.2,6.77A5.36,5.36,0,0,0,54,106.73a27.63,27.63,0,0,0,4-5.21c2.18-3.41,3.38-5.28,8.25-5.31,9.58,0,17.53-8.37,21.35-12.38l.07-.07.06-.07L88,83.4a9.35,9.35,0,0,1,.49,6,14.14,14.14,0,0,1-2,4.21,38.38,38.38,0,0,1-7.63,7.59l-.19.16c-7.53,6.1-19.83,16.06-22.58,30.27-5.78,1.84-9.58,5-11.57,9.54s-2,9.68-1.94,15.66v5.6H148.1v-5.6c0-6.07,0-11.32-2-15.88-2-4.32-5.44-7.28-10.8-9.1.33-1.2.71-2.56,1.13-4,2.66-9.36,6.31-22.17,6.31-30.75C142.7,55,115,33.84,87,31.28L75.07,19.42,73.9,18.25Z"
	/>
	<path
		class="clsN-6"
		d="M95.71,132.41a252.5,252.5,0,0,1,31.36,1.65,43.67,43.67,0,0,1,5.17,1l.66-4a46.29,46.29,0,0,0-5.32-1,254.17,254.17,0,0,0-31.87-1.69h0a254,254,0,0,0-31.86,1.69,47,47,0,0,0-5.58,1l.82,3.91a42.8,42.8,0,0,1,5.26-1A252.6,252.6,0,0,1,95.71,132.41Z"
	/>
</svg>
