<svg
	version="1.1"
	id="Layer_1"
	xmlns="http://www.w3.org/2000/svg"
	xmlns:xlink="http://www.w3.org/1999/xlink"
	x="0px"
	y="0px"
	viewBox="0 0 180 180"
	style="enable-background: new 0 0 180 180"
	xml:space="preserve"
>
	<defs>
		<style>
			.cls-1 {
				fill: #fff;
			}
			.cls-2 {
				opacity: 0.2;
			}
			.cls-3 {
				opacity: 0.15;
			}
			.cls-4 {
				fill: #4e4c4b;
			}
			.cls-5 {
				font-family: Montserrat-Medium, Montserrat;
				font-size: 12px;
			}
			.cls-6 {
				fill: #1a1a1a;
			}
		</style>
	</defs>
	<g>
		<circle class="cls-4" cx="90" cy="34.55" r="12.1" />
		<g class="cls-2">
			<path
				class="cls-1"
				d="M79.27,39.99c0-8.66,7.02-15.69,15.69-15.69,.54,0,1.07,.03,1.6,.08-1.89-1.22-4.14-1.93-6.56-1.93-6.68,0-12.1,5.42-12.1,12.1,0,2.02,.5,3.92,1.37,5.59,0-.05,0-.1,0-.15Z"
			/>
		</g>
		<path
			class="cls-3"
			d="M97.54,25.09c.65,1.55,1.02,3.25,1.02,5.04,0,7.16-5.81,12.97-12.97,12.97-1.79,0-3.49-.36-5.04-1.02,2.22,2.78,5.63,4.56,9.46,4.56,6.68,0,12.1-5.42,12.1-12.1,0-3.83-1.78-7.24-4.56-9.46Z"
		/>
		<path
			class="cls-6"
			d="M90,48.65c-7.77,0-14.1-6.32-14.1-14.09s6.32-14.1,14.1-14.1,14.1,6.32,14.1,14.1-6.32,14.09-14.1,14.09Zm0-24.19c-5.57,0-10.1,4.53-10.1,10.1s4.53,10.09,10.1,10.09,10.1-4.53,10.1-10.09-4.53-10.1-10.1-10.1Z"
		/>
		<path
			class="cls-4"
			d="M116.15,21.84c.04,.95,.06,1.91,.06,2.88,0,24.28-11.73,43.95-26.2,43.95s-26.2-19.68-26.2-43.95c0-.97,.02-1.93,.06-2.88-10.8,8.01-17.81,20.85-17.81,35.33,0,24.28,19.68,43.95,43.95,43.95s43.95-19.68,43.95-43.95c0-14.48-7-27.33-17.81-35.33Z"
		/>
		<g class="cls-3">
			<path d="M115.58,34.23c-.04,.34-.09,.67-.14,1.01v.02c.05-.34,.1-.68,.14-1.03Z" />
			<path
				d="M116.15,21.84c.01,.33,.02,.66,.03,.99,5.46,6.16,8.77,14.27,8.77,23.15,0,3.5-.52,7-1.47,10.39,0,0-7.9,38.56-55.99,38.56,6.59,3.94,14.29,6.2,22.52,6.2,24.28,0,43.95-19.68,43.95-43.95,0-14.48-7-27.33-17.81-35.33Z"
			/>
		</g>
		<g class="cls-2">
			<path class="cls-1" d="M63.83,22.83h0l-.36-.69c-10.58,8.03-17.42,20.73-17.42,35.04,0,16.04,8.6,30.07,21.43,37.75-34.36-37.9-3.65-72.1-3.65-72.1Z" />
		</g>
		<path
			class="cls-6"
			d="M90,103.13c-25.34,0-45.95-20.62-45.95-45.95,0-14.49,6.96-28.3,18.62-36.94,.62-.46,1.44-.52,2.12-.16,.68,.36,1.09,1.08,1.07,1.84-.04,.93-.06,1.86-.06,2.8,0,23.13,10.86,41.95,24.2,41.95s24.2-18.82,24.2-41.95c0-.94-.02-1.88-.06-2.8-.03-.77,.39-1.49,1.07-1.84,.68-.36,1.51-.3,2.12,.16,11.66,8.64,18.62,22.45,18.62,36.94,0,25.34-20.62,45.95-45.95,45.95ZM61.81,26.11c-8.68,7.91-13.76,19.24-13.76,31.07,0,23.13,18.82,41.95,41.95,41.95s41.95-18.82,41.95-41.95c0-11.83-5.08-23.16-13.76-31.07-.45,24.7-12.92,44.57-28.19,44.57s-27.74-19.87-28.19-44.57Z"
		/>
		<path
			class="cls-3"
			d="M116.17,22.83c.02,.63,.04,1.26,.03,1.89-.81,57.81-49.34,49.61-49.37,49.6,6.17,6.36,14.28,10.5,23.16,10.5,19.3,0,34.95-19.55,34.95-38.85,0-8.88-3.31-16.98-8.77-23.15Z"
		/>
		<path
			class="cls-6"
			d="M90,86.83c-21.15,0-36.95-21.57-36.95-40.85,0-9.03,3.29-17.72,9.27-24.47,.56-.63,1.45-.84,2.23-.54,.78,.31,1.29,1.07,1.27,1.91-.02,.61-.03,1.22-.03,1.84,0,23.13,10.86,41.95,24.2,41.95s24.2-18.82,24.2-41.95c0-.62-.01-1.23-.03-1.84-.02-.84,.48-1.61,1.27-1.91,.78-.31,1.67-.1,2.23,.54,5.98,6.76,9.27,15.45,9.27,24.47,0,19.28-15.8,40.85-36.95,40.85ZM61.91,28.77c-3.16,5.15-4.85,11.09-4.85,17.21,0,17.4,14.09,36.85,32.95,36.85s32.95-19.46,32.95-36.85c0-6.12-1.7-12.06-4.85-17.21-1.26,23.45-13.38,41.91-28.09,41.91s-26.83-18.46-28.09-41.91Z"
		/>
		<path
			class="cls-4"
			d="M90,68.68c8.38,0,15.85-6.61,20.64-16.89-6.16-3.28-13.18-5.14-20.64-5.14s-14.49,1.86-20.65,5.14c4.8,10.28,12.26,16.89,20.65,16.89Z"
		/>
		<path
			class="cls-3"
			d="M90,46.65c-.14,0-.27,0-.41,0,.27,.83,.41,1.69,.41,2.57,0,5.7-5.88,10.57-14.16,12.48,4.08,4.41,8.95,6.97,14.16,6.97,8.38,0,15.85-6.61,20.65-16.89-6.16-3.28-13.18-5.14-20.65-5.14Z"
		/>
		<path
			class="cls-6"
			d="M90,70.68c-8.92,0-17.11-6.58-22.46-18.04-.45-.96-.07-2.11,.87-2.61,6.6-3.52,14.07-5.38,21.59-5.38s14.98,1.86,21.59,5.38c.94,.5,1.32,1.65,.87,2.61-5.35,11.46-13.54,18.04-22.46,18.04Zm-17.98-17.99c4.63,8.92,11.11,13.99,17.98,13.99s13.35-5.07,17.98-13.99c-5.58-2.65-11.76-4.04-17.98-4.04s-12.39,1.39-17.98,4.04Z"
		/>
		<path class="cls-4" d="M124.81,134.44c-12.13-16.52-12.29-39.51-12.29-39.51h-45.04s-.15,22.98-12.29,39.51H124.81Z" />
		<path class="cls-3" d="M112.52,94.93h-45.04s22.57,4.61,29.07,18.5c6.51,13.89-1.65,19.14-1.65,19.14l2,1.87h27.9c-12.13-16.52-12.29-39.51-12.29-39.51Z" />
		<path
			class="cls-6"
			d="M124.81,136.44H55.19c-.75,0-1.44-.42-1.78-1.1s-.27-1.48,.17-2.09c11.62-15.82,11.9-38.11,11.9-38.34,0-1.1,.9-1.99,2-1.99h45.04c1.1,0,1.99,.89,2,1.99,0,.22,.31,22.55,11.9,38.34,.45,.61,.51,1.41,.17,2.09s-1.03,1.1-1.78,1.1Zm-65.85-4h62.08c-8.53-13.65-10.14-29.9-10.45-35.51h-41.18c-.31,5.61-1.92,21.86-10.45,35.51Z"
		/>
		<g>
			<path
				class="cls-4"
				d="M40.86,157.51v3.49h98.28v-3.49c.03-10.47,.05-19.59-13.44-23.02,0,0-47.83-4.76-71.39,0h0c-13.5,3.43-13.47,12.55-13.45,23.02Z"
			/>
			<g class="cls-2">
				<path
					class="cls-1"
					d="M124.81,134.44c-9.28-1.88-22.43-2.23-34.81-2-12.37-.24-25.52,.12-34.81,2-9.09,2.31-11.89,7.27-12.74,13.47,0,0,7.71-7.44,47.55-7.44s47.55,7.44,47.55,7.44c-.85-6.21-3.66-11.17-12.74-13.47Z"
				/>
			</g>
			<path
				class="cls-6"
				d="M139.14,163H40.86c-1.1,0-2-.9-2-2v-3.48c-.03-10.4-.06-21.15,14.95-24.96,23.68-4.78,70.12-.25,72.08-.05,.1,0,.2,.03,.29,.05,15.01,3.81,14.98,14.56,14.95,24.96v3.49c0,1.1-.9,2-2,2Zm-96.28-4h94.28v-1.5c.03-10.43,.05-17.97-11.79-21.04-2.96-.29-48.3-4.53-70.65-.02-11.89,3.02-11.87,10.59-11.84,21.06h0v1.49Z"
			/>
		</g>
	</g>
</svg>
