<svg
	version="1.1"
	id="Layer_1"
	xmlns="http://www.w3.org/2000/svg"
	xmlns:xlink="http://www.w3.org/1999/xlink"
	x="0px"
	y="0px"
	viewBox="0 0 180 180"
	style="enable-background: new 0 0 180 180"
	xml:space="preserve"
>
	<defs>
		<style>
			.cls-1 {
				fill: #fff;
			}
			.cls-2 {
				opacity: 0.2;
			}
			.cls-3 {
				fill: #99ccff;
			}
			.cls-4 {
				fill: #4e4c4b;
			}

			.cls-6 {
				fill: #1a1a1a;
			}
		</style>
	</defs>
	<g>
		<g>
			<path
				class="cls-4"
				d="M149.13,78.78c-1.1-3.23-2.77-8.64-3-10.81-.51-4.89-2.57-8.2-7.18-9.49-4.62-1.3-5.9,.27-12.57,7.2-6.67,6.93-11.02,7.59-11.02,7.59-14.26,3.93-22.45-5.1-22.85-5.56,5.64-5.19,9.18-12.63,9.18-20.9,0-15.68-12.71-28.39-28.39-28.39-11.2,0-20.89,6.49-25.51,15.92-1.84,3.77-2.88,8-2.88,12.47,0,6.43,2.14,12.36,5.74,17.11-9.17,8.1-14.74,18.77-14.74,30.47,0,25.34,26.15,45.88,58.41,45.88,51.3,0,61.84-39.74,54.82-61.49Z"
			/>
			<g class="cls-3">
				<path
					d="M102.39,126.88c9.81-2.83,19.13-9.56,23.53-21.65l-6.1,7.76-5.34,3.87-8.95,3.8-7.63,1.54-6.4,.44-7.24-.27-7.33-1.75-6.18-3.77-4.37-5.29-2.5-6.34s-.73,12.61,11.95,19.78c-18.2-4.41-32.87-15.12-39.88-28.89,1.16,24.53,26.84,44.15,58.37,44.15,39.04,0,54.48-23.01,56.53-43.6-6.85,15-21.81,28.04-48.45,30.21Z"
				/>
			</g>
			<g class="cls-2">
				<path class="cls-1" d="M86.31,21.59c-3.9-2.02-8.32-3.16-13.02-3.16-15.68,0-28.39,12.71-28.39,28.39,0,0,6.43-28.25,41.41-25.23Z" />
			</g>
			<g class="cls-2">
				<path class="cls-1" d="M64.07,99.24s7.52-17.65,31.6-15.28l-5.27-1.44-6.14-.9-6,.9-5.23,2.48-4.35,3.88-3.06,4.9-1.54,5.47Z" />
			</g>
			<g class="cls-3">
				<path
					d="M120.2,71.51h0c-17.24,7.75-27.25-3.29-27.69-3.8,3.64-3.35,6.4-7.64,7.9-12.49-.23,.32-8.04,11.09-15.7,13.35-.83,.24-1.07,1.29-.44,1.89,4.54,4.28,19.02,15.31,35.93,1.05Z"
				/>
			</g>
			<g class="cls-3">
				<path
					d="M42.79,72.77c.2-.17,8.28-7.25,12.47-8.33,4.25-1.09,2.62-10.81-3.26-14.56-1.94-1.23-4.21,.45-6.38,3.25,.91,3.98,2.64,7.64,5.03,10.79-3.04,2.68-5.68,5.65-7.85,8.84Z"
				/>
			</g>
			<ellipse class="cls-6" cx="63.88" cy="38.53" rx="3.39" ry="4.37" />
			<path
				class="cls-6"
				d="M90.54,124.65c-2.04,0-4.18-.09-6.44-.28-12.87-1.08-22.22-10.49-22.22-22.38s10.04-22.38,22.38-22.38c13.83,0,22.26,8.6,29.04,15.51,4.72,4.82,8.45,8.62,12.38,8.13,.71-.09,1.41,.21,1.85,.78,.43,.57,.52,1.33,.24,1.99-.35,.81-8.29,18.63-37.23,18.63Zm-6.27-41.04c-10.14,0-18.38,8.25-18.38,18.38s7.8,17.49,18.55,18.39c24.15,2.04,34.57-8.39,38.12-13.39-4.26-1.06-7.96-4.84-12.11-9.08-6.57-6.71-14.03-14.31-26.18-14.31Z"
			/>
			<path
				class="cls-6"
				d="M109.71,111.97c-.94,0-1.91-.04-2.91-.13-1.1-.1-1.91-1.07-1.81-2.17,.1-1.1,1.08-1.9,2.17-1.81,10.27,.94,17.52-4.19,17.6-4.24,.9-.64,2.15-.44,2.79,.45,.65,.89,.45,2.14-.44,2.79-.31,.23-7.17,5.11-17.4,5.11Z"
			/>
			<path
				class="cls-6"
				d="M94.31,142.27c-33.31,0-60.41-21.48-60.41-47.88,0-11.29,4.99-22.15,14.09-30.75-3.33-4.99-5.09-10.77-5.09-16.83,0-4.68,1.04-9.18,3.08-13.35,5.15-10.51,15.61-17.04,27.31-17.04,16.76,0,30.39,13.63,30.39,30.39,0,7.76-3,15.25-8.3,20.87,2.73,2.26,9.43,6.42,19.44,3.66,.08-.02,.15-.04,.23-.05,0,0,3.91-.8,9.89-7.01l.7-.73c6.17-6.41,8.24-8.57,13.85-7,5.17,1.45,7.99,5.12,8.63,11.21,.19,1.76,1.63,6.66,2.9,10.38v.03c3.4,10.48,3.54,27.97-7.22,42.75-7.09,9.74-21.43,21.36-49.49,21.36ZM73.3,20.42c-10.16,0-19.24,5.67-23.71,14.8-1.78,3.62-2.68,7.52-2.68,11.59,0,5.79,1.85,11.29,5.34,15.91,.63,.83,.51,2.01-.27,2.71-9.07,8.01-14.07,18.3-14.07,28.97,0,24.19,25.31,43.88,56.41,43.88,26.37,0,39.71-10.72,46.25-19.71,9.87-13.56,9.76-29.56,6.66-39.15-1.03-3.01-2.83-8.74-3.09-11.23-.47-4.45-2.18-6.78-5.73-7.77-3.14-.88-3.61-.61-9.88,5.92l-.71,.74c-6.51,6.76-11.06,7.97-12.02,8.16-15.42,4.21-24.42-5.76-24.79-6.19-.72-.82-.65-2.06,.15-2.79,5.42-4.99,8.53-12.07,8.53-19.43,0-14.55-11.84-26.39-26.39-26.39Z"
			/>
			<path
				class="cls-4"
				d="M45.81,54.51c-19.35-5.78-17.87-16.4-15.59-17.12s4.41,.73,7.53,1.66c4.03,1.2,9-2.33,9-2.33,0,0-1.39,8.32,1.45,10.03,2.85,1.71,7.97,6.26,5.98,11.1s-14.24,5.41-15.66,5.13c0,0-4-.55-1.31-5.52,0,0,1.24-2.48,3.52-4.77"
			/>
			<g class="cls-2">
				<path
					class="cls-1"
					d="M30.43,44.97s-.44-4.71,2.4-4.38c2.83,.33,10.04,2.31,12.97-3.26l-4.02,1.68-4.03,.04-5.09-1.73-2.44,.06-1.3,2.32,1.5,5.25Z"
				/>
			</g>
			<g class="cls-3"><path d="M40.46,63.03s11.65-1.78,12.74-11.62l1.44,3.37-.45,3.08-2.08,2.31-2.67,1.28-8.97,1.58Z" /></g>
			<path
				class="cls-6"
				d="M39.73,65.04c-.67,0-1.18-.03-1.47-.07h0c-.25-.03-2.45-.39-3.49-2.43-.82-1.62-.59-3.65,.69-6.02,.02-.04,.72-1.43,2.02-3.13-9.61-4.9-10.53-10.97-10.55-13-.02-2.45,1.04-4.38,2.69-4.9,2.29-.73,4.37,.07,6.38,.83,.74,.28,1.5,.58,2.33,.82,2.53,.75,6.19-1.27,7.27-2.04,.66-.47,1.53-.49,2.22-.06,.68,.43,1.04,1.23,.91,2.02-.59,3.53-.33,7.48,.51,7.99,3.69,2.21,9.28,7.57,6.8,13.58-2.2,5.34-12.2,6.42-16.31,6.42Zm1.54-9.97c-1.45,1.7-2.25,3.27-2.26,3.29-.76,1.41-.78,2.14-.67,2.36,.07,.15,.37,.27,.51,.29,1.91,.28,12.16-.67,13.5-3.91,1.5-3.64-3.22-7.46-5.16-8.63-2.43-1.46-2.87-5.17-2.78-8.22-2.04,.84-4.7,1.47-7.22,.71-.97-.29-1.84-.62-2.61-.92-1.6-.61-2.61-.97-3.46-.83-.15,.36-.36,1.3,.09,2.73,.64,2.02,3.39,7.11,15.19,10.63,1.06,.32,1.66,1.43,1.34,2.49-.32,1.06-1.43,1.66-2.49,1.34-1.44-.43-2.76-.88-3.98-1.35Z"
			/>
		</g>
		<g>
			<path
				class="cls-3"
				d="M42.97,157.55v3.45h97.08v-3.45c.03-10.34,.05-19.35-13.28-22.74,0,0-47.25-4.7-70.52,0h0c-13.33,3.39-13.31,12.4-13.28,22.74Z"
			/>
			<g class="cls-2">
				<path
					class="cls-1"
					d="M125.89,134.76c-9.17-1.85-22.16-2.21-34.38-1.97-12.22-.23-25.21,.12-34.38,1.97-8.98,2.28-11.74,7.18-12.59,13.31,0,0,7.62-7.35,46.97-7.35s46.96,7.34,46.97,7.35c-.84-6.13-3.61-11.03-12.59-13.31Z"
				/>
			</g>
			<path
				class="cls-6"
				d="M140.04,163H42.97c-1.1,0-2-.9-2-2v-3.44c-.03-10.28-.06-20.91,14.79-24.68,23.39-4.73,69.26-.25,71.21-.05,.1,0,.2,.03,.29,.05,14.84,3.77,14.82,14.4,14.79,24.68v3.44c0,1.1-.9,2-2,2Zm-95.07-4h93.07v-1.45c.03-10.29,.05-17.73-11.63-20.76-2.94-.28-47.71-4.47-69.77-.02-11.72,2.98-11.7,10.44-11.68,20.77h0v1.45Z"
			/>
		</g>
	</g>
</svg>
