<svg
	version="1.1"
	id="Layer_1"
	xmlns="http://www.w3.org/2000/svg"
	xmlns:xlink="http://www.w3.org/1999/xlink"
	x="0px"
	y="0px"
	viewBox="0 0 180 180"
	style="enable-background: new 0 0 180 180"
	xml:space="preserve"
>
	<defs>
		<style>
			.cls-1 {
				fill: #fff;
			}
			.cls-2 {
				opacity: 0.2;
			}
			.cls-3 {
				fill: #d0f0c0
			}
			.cls-4 {
				fill: #f8f8f8;
			}
			.cls-5 {
				fill: #1a1a1a;
			}
		</style>
	</defs>
	<g>
		<path
			class="cls-3"
			d="M40.67,157.19v3.43h96.68v-3.43c.03-10.3,.05-19.27-13.22-22.64,0,0-47.05-4.68-70.23,0h0c-13.28,3.37-13.25,12.35-13.23,22.65Z"
		/>
		<g class="cls-2">
			<path
				class="cls-1"
				d="M123.25,134.49c-9.13-1.84-22.07-2.2-34.24-1.96-12.17-.23-25.11,.12-34.24,1.96-8.94,2.27-11.7,7.15-12.54,13.25,0,0,7.59-7.32,46.78-7.32s46.77,7.32,46.78,7.32c-.84-6.11-3.6-10.98-12.54-13.25Z"
			/>
		</g>
		<g class="cls-3"><path d="M76.1,132.47s-6.2,8.21-14.88,4l7.21-4h7.67Z" /></g>
		<g class="cls-3"><path d="M57.51,133.62s-4.65,8.27-14.04,7.43l2.96-4.59,11.09-2.84Z" /></g>
		<g class="cls-3"><path d="M124.13,134.55s-.29-.03-.82-.08l-.05,.03s2.47,8.48,13.96,15.92c-.51-7.32-2.83-13.26-13.09-15.87Z" /></g>
		<path
			class="cls-5"
			d="M137.35,162.63H40.67c-1.1,0-2-.9-2-2v-3.43c-.03-10.24-.06-20.83,14.73-24.59,23.3-4.71,68.99-.24,70.92-.05,.1,0,.2,.03,.29,.05,14.79,3.76,14.76,14.35,14.74,24.59v3.43c0,1.1-.9,2-2,2Zm-94.68-4h92.68v-1.44c.03-10.24,.05-17.65-11.57-20.67-2.93-.28-47.51-4.45-69.49-.02-11.67,2.97-11.65,10.4-11.62,20.68h0v1.44Z"
		/>
	</g>
	<g>
		<path class="cls-4" d="M143.82,75.48s13.73,35.1-38.7,40.05c-52.43,4.95-65.07-19.47-65.07-19.47l5.12-27.5,98.64,6.91Z" />
		<g class="cls-3">
			<path
				d="M105.12,105.57c-42.78,4.04-59.06-11.47-63.61-17.32l-1.46,7.82s12.64,24.42,65.07,19.47c40.46-3.82,41.52-25.59,39.89-35.34-1.84,10.25-10.39,22.59-39.89,25.37Z"
			/>
		</g>
		<path
			class="cls-5"
			d="M91.53,118.2c-41.74,0-52.76-20.27-53.25-21.22-.2-.4-.27-.85-.19-1.29l5.12-27.5c.19-1,1.11-1.71,2.11-1.63l98.64,6.91c.77,.05,1.44,.55,1.72,1.27,.21,.53,5.04,13.23-2.18,24.96-6.16,10.01-19.01,16-38.19,17.81-4.93,.47-9.52,.68-13.78,.68Zm-49.37-22.52c2.27,3.44,16.89,22.2,62.77,17.86,17.84-1.68,29.66-7.03,35.14-15.89,5.02-8.12,3.17-17.11,2.26-20.27l-95.51-6.69-4.66,24.99Z"
		/>
		<path class="cls-4" d="M58.49,64.96s12.69-36.11,55.07-40.81c0,0,9.26,23.87-15.2,38.65-21.39,12.93-39.87,2.16-39.87,2.16Z" />
		<path
			class="cls-5"
			d="M76.3,71.2c-10.87,0-18.33-4.23-18.82-4.52-.83-.48-1.2-1.49-.88-2.39,.13-.37,13.61-37.35,56.73-42.14,.9-.1,1.76,.42,2.08,1.26,.1,.25,9.57,25.62-16.03,41.09-8.43,5.1-16.41,6.7-23.09,6.7Zm-15.26-7.2c4.71,2.15,19.44,7.26,36.28-2.92,19.57-11.82,16.32-29.54,14.84-34.75-34.31,4.56-48.09,30.85-51.12,37.68Zm-2.55,.95h0Z"
		/>
		<path
			class="cls-4"
			d="M34.08,90.19c0,11.81,5.39,21.38,12.04,21.38s10.67-9.57,10.67-21.38c0-11.81-4.02-21.38-10.67-21.38-6.65,0-12.04,9.57-12.04,21.38Z"
		/>
		<g class="cls-3">
			<path
				d="M41.99,70.1c-2.76,3.92-4.53,9.94-4.53,16.7,0,11.81,5.39,21.38,12.04,21.38,1.21,0,2.32-.32,3.35-.9-1.75,2.7-4.02,4.3-6.74,4.3-6.65,0-12.04-9.57-12.04-21.38,0-9.24,3.3-17.1,7.92-20.09Z"
			/>
		</g>
		<path
			class="cls-5"
			d="M46.12,113.57c-7.87,0-14.04-10.27-14.04-23.38s6.17-23.38,14.04-23.38,12.67,9.39,12.67,23.38-5.09,23.38-12.67,23.38Zm0-42.75c-5.44,0-10.04,8.87-10.04,19.38s4.6,19.38,10.04,19.38c4.95,0,8.67-8.33,8.67-19.38s-3.73-19.38-8.67-19.38Z"
		/>
		<path class="cls-5" d="M40.05,83.82c0,3.52,.49,6.37,2.48,6.37s3.59-2.85,3.59-6.37c0-3.52-1.61-6.37-3.59-6.37s-2.48,2.85-2.48,6.37Z" />
		<g class="cls-3">
			<path d="M115.05,30.93c.92,8.17-.43,22.03-16.69,31.86-21.39,12.93-39.87,2.16-39.87,2.16,25.2-29.03,55.8-33.91,56.57-34.02Z" />
		</g>
		<path
			class="cls-4"
			d="M45.18,68.57s41.3-13.83,100.75-3.24c0,0,.19,30.57-38.75,34.16-38.94,3.59-47.14-2.05-47.14-2.05,0,0-4.95-25.96-14.86-28.86Z"
		/>
		<g class="cls-4">
			<path
				d="M62.77,78.82l49.53-13.66,26.5-.93,.02-.06c.1,.02,.2,.03,.31,.05l1.36-.05v.26c1.8,.28,3.61,.58,5.45,.9,0,0,.19,30.57-38.75,34.16-38.94,3.59-47.14-2.05-47.14-2.05,0,0-.62-3.27-1.87-7.62,1.9,.48,4.61,.98,8.41,1.34-5.11-6.3-3.8-12.34-3.8-12.34Z"
			/>
			<path d="M47.43,67.89c.5,.95,.97,1.93,1.42,2.94-1.14-1.08-2.36-1.87-3.68-2.26,0,0,.78-.26,2.26-.68Z" />
		</g>
		<path
			class="cls-5"
			d="M83.91,102.68c-19.05,0-24.33-3.14-25.01-3.6-.43-.3-.73-.76-.83-1.27-1.32-6.89-6.3-25.22-13.46-27.32-.84-.25-1.42-1.01-1.44-1.88s.54-1.66,1.37-1.93c.42-.14,42.47-13.87,101.73-3.32,.95,.17,1.64,.99,1.65,1.96,0,.32-.27,32.45-40.57,36.16-9.5,.88-17.21,1.21-23.44,1.21Zm-22.11-6.61c2.56,1.04,13.55,4.33,45.18,1.41,15.48-1.43,26.39-7.3,32.44-17.46,3.19-5.36,4.12-10.5,4.38-13.05-46.6-7.97-81.92-.78-93.73,2.27,7.09,6.59,10.78,22.3,11.72,26.82Z"
		/>
		<path
			class="cls-4"
			d="M42.23,140.33c6.62-10.94,10.26-27.74,11.04-32.47,.79-4.74,3.43-6.02,5.6-3.2s9.92,7.97,9.92,7.97c0,0,8.81,6.81,2.16,7.27-6.65,.46-11.72-6.54-11.72-6.54-5.84,26.97-17.01,26.97-17.01,26.97Z"
		/>
		<g class="cls-3">
			<path d="M70.96,119.89c6.65-.46-2.16-7.27-2.16-7.27,0,0-2.78-1.85-5.48-3.94,0,0,1.88,5.55-4.08,4.67,0,0,5.08,7,11.72,6.54Z" />
		</g>
		<path
			class="cls-5"
			d="M42.23,142.33c-.72,0-1.39-.39-1.74-1.02-.35-.63-.34-1.4,.03-2.02,6.22-10.29,9.89-26.42,10.78-31.77,.78-4.69,3-5.92,4.25-6.24,1.73-.43,3.52,.35,4.91,2.14,1.61,2.09,7.36,6.14,9.44,7.53,.04,.03,.08,.05,.12,.08,2.36,1.82,6.18,5.32,5.28,8.26-.32,1.07-1.32,2.38-4.2,2.58-4.56,.31-8.38-2.23-10.78-4.42-6.33,24.57-17.59,24.86-18.09,24.86Zm14.26-37.16c-.13,.05-.87,.77-1.24,3.01-.03,.17-2.55,15.06-8.32,27.52,3.23-2.97,7.44-9.31,10.36-22.77,.17-.77,.77-1.37,1.54-1.53,.77-.16,1.57,.14,2.03,.78,.04,.06,4.51,6.08,9.97,5.72,.14,0,.26-.02,.37-.04-.59-.92-2.08-2.45-3.56-3.61-1.07-.71-8.08-5.45-10.34-8.38-.42-.54-.72-.69-.8-.7Z"
		/>
		<path
			class="cls-4"
			d="M88.16,116.84s-8.77-17.58-11.97-16.16-14.58,35.21-14.58,35.21c0,0,7.58,7.21,15.11-21.69,0,0,1.42,7.32,5.87,9.08s8.4-.91,8.4-.91l-2.83-5.53Z"
		/>
		<g class="cls-3">
			<path d="M61.61,135.89s.21-.62,.58-1.69c0,0,5.6-4.02,7.47-8.78,4.58-11.66,7.07-11.22,7.07-11.22-7.53,28.9-15.11,21.69-15.11,21.69Z" />
			<path
				d="M82.59,123.28c-4.44-1.76-5.87-9.08-5.87-9.08,7.33,2.76,6.07-6.9,6.07-6.9h0c2.84,4.47,5.37,9.54,5.37,9.54l2.83,5.53s-3.96,2.67-8.4,.9Z"
			/>
		</g>
		<path
			class="cls-5"
			d="M62.58,138.02c-.89,0-1.49-.19-1.68-.26-1.01-.38-1.54-1.49-1.19-2.51,.03-.08,2.89-8.58,6.11-17.14,6.78-18.03,8.45-18.77,9.55-19.26,1.23-.55,4.95-2.2,14.57,17.08l2.83,5.52c.46,.9,.18,2-.66,2.57-.2,.13-4.89,3.23-10.26,1.11-2.24-.89-3.82-2.76-4.92-4.68-2.99,8.9-6.62,14.49-10.81,16.64-1.41,.73-2.63,.92-3.54,.92Zm14.25-35.2c-2.17,3.01-7.6,16.99-12.28,30.63,2.63-1.56,6.71-6.57,10.24-19.78,.24-.9,1.06-1.52,2-1.48,.93,.03,1.72,.7,1.89,1.62,.34,1.74,1.85,6.5,4.64,7.61,1.91,.76,3.71,.45,4.95,.04l-1.9-3.7v-.02c-3.52-7.04-7.67-13.49-9.54-14.91Zm.38-.45"
		/>
		<path
			class="cls-5"
			d="M45.18,70.57c-.25,0-.51-.05-.76-.15-.26-.11-6.34-2.69-9.03-9.44-2.07-5.19-1.57-11.3,1.48-18.15,8.98-20.15,32.26-22.12,49.46-17.69,1.07,.28,1.71,1.37,1.44,2.44-.28,1.07-1.37,1.71-2.44,1.44-15.69-4.04-36.85-2.43-44.81,15.44-2.6,5.83-3.08,10.9-1.42,15.04,2.08,5.2,6.8,7.21,6.85,7.23,1.02,.42,1.51,1.59,1.08,2.61-.32,.77-1.06,1.24-1.85,1.24Z"
		/>
		<path
			class="cls-5"
			d="M47.85,69.78c-.52,0-1.03-.2-1.42-.59-1.58-1.6-5.22-5.96-5.05-12.06,.15-5.13,2.93-10.17,8.26-14.98,12.65-11.4,42.21-6.17,43.46-5.95,1.09,.2,1.81,1.24,1.61,2.33-.2,1.09-1.24,1.81-2.33,1.61-.29-.05-28.87-5.11-40.07,4.98-4.49,4.05-6.83,8.12-6.94,12.12-.13,4.55,2.68,7.9,3.89,9.13,.78,.79,.77,2.05-.02,2.83-.39,.38-.9,.58-1.41,.58Z"
		/>
		<path class="cls-4" d="M62.77,78.82s20.84-50.38,81.46-53.8c0,0,11.32,34.67-24.59,53.8-31.42,16.74-56.87,0-56.87,0Z" />
		<g class="cls-2"><path class="cls-1" d="M77.29,56.93c11.71-13.24,31.25-28.17,61.22-31.44-.21,.07-30.59,10.48-61.22,31.44Z" /></g>
		<g class="cls-3">
			<path
				d="M119.03,68.58c19.66-13.8,24.5-30.53,24.56-43.51,.22-.01,.43-.03,.64-.04,0,0,11.32,34.67-24.59,53.8-26.32,14.02-48.44,4.56-54.94,1.11,11.94,2.69,32.69,3.83,54.33-11.35Z"
			/>
		</g>
		<path
			class="cls-5"
			d="M91.06,88.2c-17.38,0-29.22-7.59-29.39-7.71-.8-.53-1.12-1.55-.75-2.44,.22-.53,5.51-13.11,18.42-26.25,11.92-12.13,32.83-26.97,64.78-28.77,.9-.04,1.73,.51,2.01,1.38,.12,.36,11.42,36.49-25.55,56.18-10.72,5.71-20.81,7.61-29.52,7.61Zm-25.71-10.2c5.76,3.08,27.6,12.77,53.35-.94,29.91-15.93,25.59-43.29,24.02-49.93-29.69,2.12-49.21,15.99-60.42,27.36-9.81,9.96-15.13,19.77-16.96,23.51Z"
		/>
		<path
			class="cls-4"
			d="M88.71,115.36c4.75-9.02,17.88-32.05,29.39-34.35,0,0,1.54,16.94-5.64,29.24-5.85,10.03-14.95,16.99-21.55,13.11-2.75-1.62-3.69-5.16-2.21-7.99Z"
		/>
		<g class="cls-3">
			<path
				d="M90.92,123.35c-2.47-1.45-3.48-4.46-2.58-7.1,7.43,5.57,16.21-4.7,19.7-12.7,2.86-6.57,2.43-18.45,2.43-18.45h0c2.55-2.11,5.14-3.59,7.64-4.09,0,0,1.54,16.94-5.64,29.24-5.85,10.03-14.95,16.99-21.55,13.11Z"
			/>
		</g>
		<path
			class="cls-5"
			d="M94.97,126.43c-1.81,0-3.53-.46-5.07-1.36-3.67-2.15-4.97-6.83-2.96-10.64h0c6.42-12.2,18.95-33.02,30.77-35.38,.55-.11,1.13,.02,1.59,.36,.46,.34,.74,.86,.8,1.42,.06,.72,1.51,17.72-5.9,30.42-4.54,7.79-10.61,13.32-16.23,14.79-1.02,.27-2.02,.4-2.99,.4Zm21.25-42.72c-10.38,4.64-22.18,25.81-25.74,32.58h0c-1.01,1.92-.37,4.26,1.45,5.33,1.45,.85,3.14,1.04,5.02,.54,4.54-1.19,9.83-6.14,13.79-12.93,5.17-8.86,5.58-20.47,5.48-25.52Zm-27.51,31.65h0Z"
		/>
		<path
			class="cls-4"
			d="M117.03,80.87s10.48,4.56,7.5,24.81c-2.98,20.25,14.6,36.76,14.6,36.76,0,0-23.06-.9-20.98-34.8,.53-8.64-12.15-13.91-1.12-26.77Z"
		/>
		<g class="cls-3">
			<path
				d="M118.15,106.64s.03,.36,.11,.99c.52,4.28,3.27,21.23,14.63,27.34h0c3.29,4.68,6.25,7.47,6.25,7.47,0,0-23.06-.9-20.98-34.8,.02-.34,.02-.67,0-1Z"
			/>
		</g>
		<path
			class="cls-5"
			d="M139.13,144.44s-.05,0-.08,0c-.35-.01-8.57-.42-15.15-7.69-5.93-6.56-8.54-16.39-7.75-29.23,.15-2.45-1.07-4.67-2.48-7.23-2.77-5.04-6.23-11.32,1.84-20.72,.57-.67,1.51-.88,2.32-.53,.49,.21,11.84,5.42,8.68,26.93-2.79,19,13.83,34.86,13.99,35.01,.61,.57,.8,1.46,.48,2.23-.31,.75-1.04,1.23-1.84,1.23Zm-21.67-60.93c-4.89,6.48-2.75,10.38-.29,14.85,1.57,2.85,3.19,5.8,2.97,9.4-.72,11.68,1.53,20.51,6.67,26.24,2.04,2.28,4.3,3.75,6.32,4.71-5.22-6.64-12.69-18.99-10.58-33.32,2.09-14.23-2.69-19.95-5.08-21.87Z"
		/>
	</g>
</svg>
