<svg
	version="1.1"
	id="Layer_1"
	xmlns="http://www.w3.org/2000/svg"
	xmlns:xlink="http://www.w3.org/1999/xlink"
	x="0px"
	y="0px"
	viewBox="0 0 180 180"
	style="enable-background: new 0 0 180 180"
	xml:space="preserve"
>
	<defs>
		<style>
			.cls-1 {
				fill: none;
			}
			.cls-2 {
				fill: #f8f8f8;
			}
			.cls-3,
			.cls-4 {
				opacity: 0.2;
			}
			.cls-4 {
				fill: #fff;
			}
			.cls-5 {
				fill: #1a1a1a;
			}
		</style>
	</defs>
	<rect class="cls-1" width="180" height="180" />
	<path
		class="cls-2"
		d="M111.12,20.62A14.63,14.63,0,0,0,96.51,35.23a13.92,13.92,0,0,0,5.41,10.93L90.54,79,79.15,46.16a13.92,13.92,0,0,0,5.41-10.93A14.63,14.63,0,0,0,70,20.62,14.46,14.46,0,0,0,55.34,35.23a13.67,13.67,0,0,0,9.22,13.16L62.73,87.11,47,70.32a13.77,13.77,0,0,0,2.25-6.95A14.22,14.22,0,0,0,35.45,49.43,13.9,13.9,0,0,0,21.51,63.37c0,6.6,5.45,12.86,11.57,13.69l23.06,55.46c-16.44,3.06-16.42,12.95-16.39,24.31v3.62H141.32v-3.61c0-11.37.06-21.26-16.39-24.32L148,77.06c6.13-.83,11.58-7.09,11.58-13.69a14,14,0,0,0-13.95-13.94,14.22,14.22,0,0,0-13.78,13.94,13.64,13.64,0,0,0,2.26,6.95L118.35,87.11l-1.83-38.73a13.88,13.88,0,0,0,9.21-13.15,14.45,14.45,0,0,0-14.61-14.61Z"
	/>
	<path class="cls-3" d="M40.24,52.34c5.31,6.79-3.85,12.82,1.26,18.34L64.72,92.17l-17.4-23s2.2-5.64.81-9.8C45,50,40.24,52.34,40.24,52.34Z" />
	<path class="cls-4" d="M38.42,51.33c-4.81.45-12.22,5.85-13.92,16.84-.13.79-5.49-5,1.6-13.2C31.69,48.47,38.42,51.33,38.42,51.33Z" />
	<path class="cls-4" d="M148.84,51.33c-4.8.45-12.22,5.85-13.92,16.84-.12.79-5.48-5,1.61-13.2C142.11,48.47,148.84,51.33,148.84,51.33Z" />
	<path class="cls-4" d="M72.54,22.75c-5.14.53-13.22,6.79-14,19.44,0,0-5.29-7.36,1.72-15.68C65.78,20,72.54,22.75,72.54,22.75Z" />
	<path class="cls-4" d="M113.44,22.75c-5.14.53-13.22,6.79-14,19.44,0,0-5.28-7.36,1.72-15.68C106.69,20,113.44,22.75,113.44,22.75Z" />
	<path
		class="cls-4"
		d="M91.12,138.41c43.07,0,47.54,4.75,47.54,4.75h.59c-1.93-10.18-24.5-11.3-24.5-11.3H67.65s-23.36.81-24.66,11.3h.59S48.05,138.41,91.12,138.41Z"
	/>
	<path
		class="cls-3"
		d="M116.2,112.83c-15.74,17-31.38,16.5-31.38,16.5l39.74,3.1,23.31-55.11s5.42-.62,9.46-7.34c6-9.94-5.53-17.09-5.53-17.09,3.61,4.19,3.08,11.15,0,14s-7.86,3.31-9.69,7.48C142.15,74.36,131.22,96.58,116.2,112.83Z"
	/>
	<path class="cls-3" d="M116.83,23.36c7.64,10.53-6.88,14-6,23.56l5.75,45,0-43s10.08-6.11,9.18-13.42C124.37,24,116.83,23.36,116.83,23.36Z" />
	<path class="cls-3" d="M72.69,45.45,90.54,85.1,79.16,46.49s4.35-6.34,4.35-11.81c0-10.06-8.45-12-8.45-12C83.19,33.57,69.51,35.91,72.69,45.45Z" />
	<path
		class="cls-5"
		d="M145.63,47.43c-8.41,0-15.79,7.45-15.79,15.94A14.77,14.77,0,0,0,131.62,70l-11.5,12.26-1.54-32.58a16,16,0,0,0,9.15-14.48,16.43,16.43,0,0,0-16.61-16.61A16.63,16.63,0,0,0,94.51,35.23,16,16,0,0,0,99.58,46.8l-9,26.09L81.49,46.8a16,16,0,0,0,5.07-11.57A16.63,16.63,0,0,0,70,18.62,16.44,16.44,0,0,0,53.34,35.23,15.75,15.75,0,0,0,62.5,49.74L61,82.29,49.45,70a14.71,14.71,0,0,0,1.78-6.66c0-8.49-7.37-15.94-15.78-15.94A16,16,0,0,0,19.51,63.37,16.34,16.34,0,0,0,31.65,78.84l21.72,52.23c-15.68,3.87-15.65,14.54-15.62,25.77v5.61H143.32v-5.61c0-11.24.06-21.9-15.62-25.77l21.72-52.23a16.34,16.34,0,0,0,12.15-15.47A16,16,0,0,0,145.63,47.43Zm-6.31,111H41.76c0-13-.82-22,17.2-24.35l.58-.09a257.11,257.11,0,0,1,31.58-1.6,243.81,243.81,0,0,1,31,1.69C140.13,136.46,139.32,145.4,139.32,158.45Zm7.3-83.29-22.89,55-.75-.1a254,254,0,0,0-31.86-1.69A259,259,0,0,0,59,130c-.57.07-1.12.15-1.66.24L34.46,75.16c-5.48,0-10.95-5.65-10.95-11.79A11.89,11.89,0,0,1,35.45,51.43,12.2,12.2,0,0,1,47.23,63.37c0,3.72-2.82,7.14-2.82,7.14L64.5,91.92l2.14-45.07a11.61,11.61,0,0,1-9.3-11.62A12.41,12.41,0,0,1,70,22.62a12.6,12.6,0,0,1,12.6,12.61,11.85,11.85,0,0,1-5.8,10.12L90.54,85.1l13.78-39.75a11.86,11.86,0,0,1-5.81-10.12,12.61,12.61,0,0,1,12.61-12.61,12.4,12.4,0,0,1,12.61,12.61,11.72,11.72,0,0,1-9.29,11.62l2.14,45.07,20.08-21.41s-2.82-3.4-2.82-7.14a12.2,12.2,0,0,1,11.79-11.94,11.89,11.89,0,0,1,11.94,11.94C157.57,69.51,152.1,75.16,146.62,75.16Z"
	/>
</svg>