<svg
	version="1.1"
	id="Layer_1"
	xmlns="http://www.w3.org/2000/svg"
	xmlns:xlink="http://www.w3.org/1999/xlink"
	x="0px"
	y="0px"
	viewBox="0 0 180 180"
	style="enable-background: new 0 0 180 180"
	xml:space="preserve"
>
	<defs>
		<style>
			.clsR-1 {
				fill: #f8f8f8;
			}
			.clsR-2,
			.clsR-3 {
				fill: #fff;
			}
			.clsR-2,
			.clsR-4 {
				opacity: 0.2;
			}
			.clsR-3 {
				opacity: 0.3;
			}
			.clsR-5 {
				fill: #1a1a1a;
			}
			.clsR-6 {
				fill: none;
			}
		</style>
	</defs>
	<path
		class="clsR-1"
		d="M90,30.87a92.56,92.56,0,0,0-10.56.85l-1.45.2-.25,1.44L74.87,50.28H70L64.84,35.53l-.47-1.34H63a31.07,31.07,0,0,0-14.88,3.72l-1.15.62.1,1.31L48.68,60v.1c1,7.21,4.68,11.7,11.93,14.38-1,8.58-5.74,48.89-6.95,58.44-14.51,3.42-14.49,12.94-14.46,23.92v3.62H140.78v-3.62c0-11,.06-20.5-14.46-23.92-1.2-9.55-5.94-49.86-6.95-58.44,7.26-2.68,11-7.17,11.94-14.38V60L133,39.84l.11-1.31-1.15-.62A31.08,31.08,0,0,0,117,34.19h-1.41l-.47,1.34L110,50.28h-4.85l-2.87-16.92L102,31.92l-1.45-.2A92.56,92.56,0,0,0,90,30.87Z"
	/>
	<path
		class="clsR-2"
		d="M90,138.41c43.07,0,47.54,4.75,47.54,4.75h.59c-1.93-10.18-24.49-11.3-24.49-11.3H66.53s-23.36.81-24.66,11.3h.59S46.93,138.41,90,138.41Z"
	/>
	<path class="clsR-3" d="M60,34.43c-10.75,7.36-6.7,34.9-6.7,34.9-6.85-2.21-6.7-31.73-6.7-31.73S63.08,32.34,60,34.43Z" />
	<path class="clsR-3" d="M93.18,32.26c-12,2.19-16.62,19.64-16.62,19.64.8-13,3.52-20.54,3.52-20.54S96.59,31.63,93.18,32.26Z" />
	<path class="clsR-3" d="M125.15,35.88c-7.77,4.11-13.75,16-13.75,16-.44-4.24,5.47-19,5.47-19S128.05,34.35,125.15,35.88Z" />
	<path
		class="clsR-4"
		d="M123.87,72.17c10.62.24,8.73-32.78,8.73-32.78l-6.36-4c-1.76,10.55-4,26.9-9.16,31.43-4.71,4.15-7.59,5.12-8.31,5.3-1.37-.17-2.83-.33-4.43-.47-14.5-1.32-35.6,2.82-35.6,2.82s21.37-1.3,32.3,12.42,12,43.37,12,43.37c7.16,1.33,12.49,2.8,12.49,2.8l-6.73-57.46S122.46,72.14,123.87,72.17Z"
	/>
	<path
		class="clsR-5"
		d="M140.65,140.76c-2.2-4.67-6.21-7.71-12.51-9.45-1.35-10.88-5.36-45-6.6-55.54,7.06-3,10.73-7.87,11.75-15.41v-.21L135,40l.21-2.61-2.3-1.24a33.05,33.05,0,0,0-15.84-4h-3.19l-.71,3.12-2.93,13H105l-1.74-15-.35-3-3-.49A72.25,72.25,0,0,0,90,28.87a72.06,72.06,0,0,0-9.94.88l-3,.49-.35,3L75,48.28h-5.2l-2.93-13-.71-3.12H63a33,33,0,0,0-15.83,4l-2.3,1.24L45,40l1.66,20.15v.21c1,7.54,4.68,12.39,11.75,15.41-1.24,10.54-5.26,44.66-6.6,55.54-6.31,1.74-10.32,4.78-12.51,9.45s-2.15,9.91-2.14,16.07v5.62H142.78v-5.62C142.8,150.68,142.81,145.36,140.65,140.76Zm-90-80.94L49,39.67A28.93,28.93,0,0,1,63,36.19L66.6,52.28h12L80.71,33.7A67.28,67.28,0,0,1,90,32.87a67.28,67.28,0,0,1,9.29.83l2.15,18.58h12L117,36.19A29,29,0,0,1,131,39.67l-1.66,20.15c-.77,5.74-3.29,10-10.52,12.73A234.34,234.34,0,0,0,90,70a234.67,234.67,0,0,0-28.8,2.54C54,69.84,51.45,65.56,50.67,59.82Zm11.74,16.6A231,231,0,0,1,90,74a230.47,230.47,0,0,1,27.59,2.41c1.21,10.31,4.93,41.88,6.41,54-.69-.12-1.4-.23-2.14-.32A254,254,0,0,0,90,128.41a254,254,0,0,0-31.86,1.69c-.75.09-1.45.2-2.14.32C57.48,118.3,61.2,86.73,62.41,76.42Zm76.37,82H41.22c0-11.85-.67-20.31,12.69-23.53l.34-.09,1-.21c1-.22,2.16-.4,3.37-.56A252.6,252.6,0,0,1,90,132.41a252.6,252.6,0,0,1,31.36,1.65c1.18.15,2.28.34,3.31.54l1.1.24.23,0C139.45,138.1,138.78,146.58,138.78,158.45Z"
	/>
	<rect class="clsR-6" width="180" height="180" />
</svg>
